<svg version="1.1" id="Layer_1" xmlns="http://www.w3.org/2000/svg" x="0" y="0" viewBox="0 0 2226.2 1265" xml:space="preserve"><style>.st0{fill:#231f20}.st1{fill:#eee}.st4,.st5{fill:none;stroke:#231f20;stroke-width:1.91;stroke-miterlimit:10}.st5{stroke-width:2.865}.st6{enable-background:new}.st7{fill:#010101}.st8{fill:none;stroke:#010101;stroke-width:2.865}.st10,.st11,.st8,.st9{stroke-miterlimit:10}.st9{fill:none;stroke:#010101;stroke-width:2.865;stroke-dasharray:1.8844,9.4221}.st10,.st11{fill:#fff;stroke:#231f20;stroke-width:5.731}.st11{stroke-width:3.82;stroke-linecap:round;stroke-linejoin:bevel}.st12{fill:none}.st13{fill:#fff;stroke:#231f20;stroke-width:4.775;stroke-miterlimit:10}.st14{fill:#0f0f0f}.st15{fill:none;stroke:#231f20;stroke-width:3.274;stroke-miterlimit:10}.st16,.st17{fill:none;stroke-width:4.911}.st16{stroke:#231f20;stroke-miterlimit:10}.st17{stroke:#010101}.st17,.st18,.st19{stroke-miterlimit:10}.st18{fill:none;stroke:#010101;stroke-width:4.911;stroke-dasharray:3.2295,16.1477}.st19{fill:#eee;stroke:#231f20;stroke-width:9.821}</style><path class="st0" d="M30.6 1232.6V34.3H2196v1198.3H30.6zm2158.9-6.4V40.7H37v1185.5h2152.5z"/><path class="st1" d="M2194.9 35.3v1196.3H31.6V35.3h2163.3M36 1227.2h2154.5V39.7H36v1187.5M2196.9 33.3H29.6v1200.3H2197V33.3h-.1zM38 41.7h2150.5v1183.5H38V41.7z"/><path class="st0" d="M387.4 1231.4V33.6h1451.4v1197.8H387.4zm1445.6-5.8V39.5H393.2v1186.1H1833z"/><path class="st1" d="M1837.8 34.6v1195.8H388.4V34.6h1449.4m-1445.6 1192H1834V38.5H392.2v1188.1m1447.6-1194H386.4v1199.8h1453.4V32.6zM394.2 40.5H1832v1184.1H394.2V40.5z"/><path class="st0" d="M32.8 374.6H2189v5.8H32.8v-5.8z"/><path class="st1" d="M2187.9 375.6v3.8H33.8v-3.8h2154.1m2-2H31.8v7.8H2190l-.1-7.8z"/><path class="st0" d="M32.8 896.1H2189v5.8H32.8v-5.8z"/><path class="st1" d="M2187.9 897.1v3.8H33.8v-3.8h2154.1m2-2H31.8v7.8H2190l-.1-7.8z"/><path class="st0" d="M709 36.5h6.8v1193.9H709V36.5z"/><path class="st1" d="M714.8 37.5v1191.9H710V37.5h4.8m2-2H708v1195.9h8.8V35.5z"/><path class="st0" d="M907.6 36.5h6.8v1193.9h-6.8V36.5z"/><path class="st1" d="M913.4 37.5v1191.9h-4.8V37.5h4.8m2-2h-8.8v1195.9h8.8V35.5z"/><path class="st0" d="M1303 36.5h6.8v1193.9h-6.8V36.5z"/><path class="st1" d="M1308.8 37.5v1191.9h-4.8V37.5h4.8m2-2h-8.8v1195.9h8.8V35.5z"/><path class="st0" d="M1501.7 36.5h6.8v1193.9h-6.8V36.5z"/><path class="st1" d="M1507.5 37.5v1191.9h-4.8V37.5h4.8m2-2h-8.8v1195.9h8.8V35.5z"/><path class="st0" d="M32.8 630.6H2189v5.8H32.8v-5.8z"/><path class="st1" d="M2187.9 631.6v3.8H33.8v-3.8h2154.1m2-2H31.8v7.8H2190l-.1-7.8z"/><path class="st0" d="M711.4 234.2h794.7v5.8H711.4v-5.8z"/><path class="st1" d="M1505.1 235.2v3.8H712.4v-3.8h792.7m2-2H710.4v7.8h796.7v-7.8z"/><path class="st0" d="M711.4 1027.9h794.7v5.8H711.4v-5.8z"/><path class="st1" d="M1505.1 1028.9v3.8H712.4v-3.8h792.7m2-2H710.4v7.8h796.7v-7.8z"/><path class="st0" d="M1106.3 47h6.8v1171h-6.8V47z"/><path class="st1" d="M1112.1 48v1169h-4.8V48h4.8m2-2h-8.8v1173h8.8V46z"/><path d="M708.6 240.8l7.4-7.4 793.2 793.2-7.4 7.4-793.2-793.2z" fill="#231f20" stroke="#eee" stroke-width="3" stroke-miterlimit="10"/><path d="M708.2 1026.6l793.3-793.2 7.4 7.4L715.6 1034l-7.4-7.4z" fill="#231f20" stroke="#eee" stroke-width="3" stroke-miterlimit="10"/><path class="st4" d="M338.2 253.6c-3.5 8.7-7.9 17-13.2 24.6"/><path class="st5" d="M338.2 253.6c-3.5 8.7-7.9 17-13.2 24.6"/><path class="st0" d="M213 375.4c-93.8 0-170.2-76.3-170.2-170.2S119.2 35.1 213 35.1s170.2 76.3 170.2 170.2S306.9 375.4 213 375.4zm0-327.9c-87 0-157.7 70.8-157.7 157.7S126 363 213 363s157.7-70.8 157.7-157.7S300 47.5 213 47.5z"/><path class="st1" d="M213 38c92.2 0 167.3 75 167.3 167.3s-75 167.3-167.3 167.3c-92.2 0-167.3-75.1-167.3-167.3S120.8 38 213 38m0 327.9c88.6 0 160.6-72.1 160.6-160.6S301.6 44.7 213 44.7s-160.6 72-160.6 160.6S124.5 365.9 213 365.9m0-333.6c-95.4 0-173 77.6-173 173s77.6 173 173 173 173-77.6 173-173c.1-95.4-77.6-173-173-173zm0 327.9c-85.4 0-154.9-69.5-154.9-154.9S127.6 50.4 213 50.4s154.9 69.5 154.9 154.9S298.4 360.2 213 360.2z"/><path class="st4" d="M100 147.2c3.3-6.2 7.1-12 11.4-17.5m42.3 189.5c-25-12.8-45.1-33.7-57-59.2"/><path class="st5" d="M297.4 307.3c-6.3 4.8-13 9-20.1 12.5"/><path class="st4" d="M269 94.8c24.1 12.5 43.7 32.6 55.6 57m-184-49.5c5.8-3.9 12-7.4 18.4-10.3"/><g class="st6"><path class="st7" d="M127.9 121.9l-8.1 8.1c-1-1-1.6-2.1-1.9-3.3-.3-1.2-.3-2.5 0-3.8.1-.7.2-1.3.4-2s.3-1.3.3-2 0-1.3-.1-1.8c-.1-.6-.4-1.1-.9-1.6-.2-.2-.5-.4-.8-.6-.3-.2-.6-.3-1-.4-.4-.1-.7 0-1.1.1-.4.1-.8.4-1.2.8-.4.4-.6.8-.7 1.2-.1.4-.1.8 0 1.2.1.4.3.8.6 1.3.3.4.6.9 1 1.3l-1.9 1.9c-.7-.7-1.2-1.3-1.6-2.1s-.6-1.5-.7-2.2c-.1-.8.1-1.5.3-2.2s.7-1.4 1.4-2.1c.7-.7 1.4-1.2 2.2-1.5.7-.2 1.4-.3 2.1-.3.7.1 1.3.2 1.8.5s1 .6 1.4 1c.5.5.8 1 1.1 1.5.2.5.4 1.1.5 1.6.1.6.1 1.1 0 1.7 0 .6-.1 1.2-.2 1.7-.1.6-.2 1.1-.3 1.7-.1.6-.2 1.1-.3 1.6-.1.5-.1 1-.1 1.4 0 .4.1.8.3 1.2l5.8-5.8 1.7 1.9zM121.2 104.5c.8-.8 1.7-1.3 2.7-1.5s1.8-.1 2.7.2 1.8.8 2.6 1.4 1.6 1.3 2.3 1.9c.7.7 1.3 1.4 1.9 2.3.6.8 1.1 1.7 1.4 2.6.3.9.4 1.8.2 2.7-.1.9-.6 1.8-1.5 2.7-.8.8-1.7 1.3-2.6 1.5-.9.1-1.8.1-2.7-.2s-1.8-.8-2.6-1.4c-.8-.6-1.6-1.3-2.3-1.9s-1.3-1.4-1.9-2.3c-.6-.8-1.1-1.7-1.4-2.6-.3-.9-.4-1.8-.2-2.7 0-1 .5-1.9 1.4-2.7zm10.7 10.7c.4-.4.6-.9.7-1.4 0-.5-.1-1.1-.3-1.6-.2-.6-.6-1.2-1.1-1.8-.5-.6-1-1.2-1.7-1.9-.6-.6-1.2-1.2-1.8-1.6-.6-.5-1.2-.8-1.8-1.1-.6-.3-1.1-.4-1.7-.3-.5 0-1 .3-1.4.7-.4.4-.7.9-.7 1.4 0 .5.1 1.1.3 1.6.3.6.6 1.2 1.1 1.8s1 1.2 1.6 1.8c.6.6 1.2 1.2 1.9 1.7.6.5 1.2.9 1.8 1.1.6.2 1.1.4 1.6.3.6-.1 1-.3 1.5-.7z"/></g><path class="st5" d="M100 147.2c3.3-6.2 7.1-12 11.4-17.5m42.3 189.5c-25-12.8-45.1-33.7-57-59.2M269 94.8c24.1 12.5 43.7 32.6 55.6 57m-184-49.5c5.8-3.9 12-7.4 18.4-10.3"/><g class="st6"><path class="st7" d="M303.9 295.1l-1.5 1.5 2.8 2.8-1.8 1.8-2.8-2.8-5.1 5.1-1.9-1.9-2-12.2 1.8-1.8 7.5 7.5 1.5-1.5 1.5 1.5zm-8.4 5.4l3.6-3.6-5.2-5.2 1.6 8.8z"/></g><g class="st6"><path class="st7" d="M299.2 281.3c.8-.8 1.7-1.3 2.6-1.5.9-.1 1.8-.1 2.7.2s1.8.8 2.6 1.4c.8.6 1.6 1.3 2.3 1.9.7.7 1.3 1.4 1.9 2.3.6.8 1.1 1.7 1.4 2.6.3.9.4 1.8.2 2.7-.1.9-.6 1.8-1.5 2.7s-1.7 1.3-2.6 1.5c-.9.1-1.8.1-2.7-.2s-1.8-.8-2.6-1.4c-.8-.6-1.6-1.3-2.3-1.9-.7-.7-1.3-1.4-1.9-2.3-.6-.8-1.1-1.7-1.4-2.6-.3-.9-.4-1.8-.2-2.7.2-1 .7-1.9 1.5-2.7zm10.7 10.7c.4-.4.6-.9.7-1.4 0-.5-.1-1.1-.3-1.6-.2-.6-.6-1.2-1.1-1.8-.5-.6-1-1.2-1.7-1.9-.6-.6-1.2-1.2-1.8-1.6-.6-.5-1.2-.8-1.8-1.1-.6-.3-1.1-.4-1.7-.3-.5 0-1 .3-1.4.7-.4.4-.7.9-.7 1.4 0 .5.1 1.1.3 1.6.3.6.6 1.2 1.1 1.8.5.6 1 1.2 1.6 1.8.6.6 1.2 1.2 1.9 1.7.6.5 1.2.9 1.8 1.1.6.2 1.1.4 1.6.3.6-.1 1.1-.3 1.5-.7z"/></g><path class="st5" d="M260.4 277.4c-3.4 2.3-6.9 4.4-10.5 6.2M135.7 165.8c1.7-3.1 3.6-6.2 5.6-9.1m31.1 126.5c-17-8.7-30.8-23-38.9-40.4m158-4.4c-1.4 3.4-3 6.8-4.8 10m-35.6-118.3c16.5 8.5 29.8 22.2 37.9 38.9m-121-36.7c2.6-1.5 5.2-2.9 7.9-4.1"/><g class="st6"><path class="st7" d="M140.9 146.8c.4-.4.8-.8 1.1-1.3.3-.5.5-.9.7-1.4.2-.5.2-.9.2-1.4 0-.5-.2-.9-.5-1.3l1.6-1.6 11.8 11.8-2.1 2.1-8.3-8.3-2.9 2.9-1.6-1.5z"/></g><g class="st6"><path class="st7" d="M147.8 136l6.1-6.1 1.7 1.7-4.7 4.7 2.4 3.6h.1c0-.6.1-1.1.3-1.7.2-.6.6-1 1-1.4.6-.6 1.2-1 1.9-1.3.7-.3 1.3-.4 2-.3.7 0 1.3.2 2 .5.6.3 1.3.8 1.8 1.3s.9 1 1.2 1.7c.3.7.6 1.4.6 2.1s0 1.5-.3 2.3c-.3.8-.7 1.5-1.5 2.3-.6.6-1.2 1-1.8 1.4-.6.3-1.3.5-2 .6-.7.1-1.3 0-2-.2s-1.3-.6-1.9-1.2l1.9-1.9c.7.6 1.4.9 2.1.8.7 0 1.4-.4 2-1 .4-.4.7-.8.8-1.2.1-.4.2-.8.1-1.2-.1-.4-.2-.8-.5-1.2-.2-.4-.5-.8-.9-1.1-.3-.3-.7-.6-1.1-.8-.4-.2-.8-.3-1.2-.4-.4 0-.8 0-1.2.2s-.8.4-1.2.8c-.4.4-.7.9-.9 1.4-.2.5-.2 1 .1 1.6l-1.9 1.9-5-7.9z"/></g><g class="st6"><path class="st7" d="M267.8 267.9c.3-.3.6-.6.9-1 .3-.4.4-.8.5-1.1.1-.4.1-.8 0-1.2-.1-.4-.3-.8-.7-1.1-.5-.5-1.1-.7-1.7-.7-.6 0-1.2.3-1.8.9-.3.3-.6.7-.7 1.1-.1.4-.1.8-.1 1.2.1.4.2.8.4 1.1.2.4.5.7.8 1l-1.9 1.9c-.6-.6-1-1.2-1.3-1.9-.3-.7-.5-1.4-.5-2.1 0-.7.1-1.4.4-2.1.3-.7.7-1.3 1.3-1.9.5-.5 1-.8 1.6-1.2.6-.3 1.2-.5 1.8-.6s1.2-.1 1.8.1c.6.2 1.2.5 1.7 1.1.6.6 1 1.3 1.2 2 .2.7.1 1.5-.3 2.2.8-.5 1.7-.7 2.6-.6.9.2 1.8.6 2.5 1.4.6.6 1 1.2 1.2 1.8.2.7.3 1.4.2 2-.1.7-.3 1.4-.6 2.1-.3.7-.8 1.3-1.4 1.9-.7.7-1.4 1.2-2.1 1.5s-1.4.5-2.1.4c-.7 0-1.4-.2-2.1-.5-.7-.3-1.3-.8-2-1.4l1.9-1.9c.7.7 1.5 1.2 2.3 1.3.9.1 1.7-.2 2.4-1 .6-.6 1-1.4 1.1-2.2.1-.8-.2-1.5-.9-2.2-.5-.5-.9-.7-1.4-.8-.4-.1-.9-.1-1.3.1s-.9.4-1.2.7-.8.7-1.2 1.1l-1.3-1.4zM270.5 255.4l6.1-6.1 1.7 1.7-4.7 4.7 2.4 3.6h.1c0-.6.1-1.1.3-1.7.2-.6.6-1 1-1.4.6-.6 1.2-1 1.9-1.3.7-.3 1.3-.4 2-.3.7 0 1.3.2 2 .5.6.3 1.3.8 1.8 1.3s.9 1 1.2 1.7c.3.7.6 1.4.6 2.1.1.7 0 1.5-.3 2.3-.3.8-.7 1.5-1.5 2.3-.6.6-1.2 1-1.8 1.4-.6.3-1.3.5-2 .6-.7.1-1.3 0-2-.2s-1.3-.6-1.9-1.2l1.9-1.9c.7.6 1.4.9 2.1.8.7 0 1.4-.4 2-1 .4-.4.7-.8.8-1.2.1-.4.2-.8.1-1.2-.1-.4-.2-.8-.5-1.2-.2-.4-.5-.8-.9-1.1-.3-.3-.7-.6-1.1-.8s-.8-.3-1.2-.4-.8 0-1.2.2c-.4.2-.8.4-1.2.8-.4.4-.7.9-.9 1.4s-.2 1 .1 1.6l-1.9 1.9-5-7.9z"/></g><path class="st8" d="M49.1 205.3h.9"/><path class="st9" d="M59.4 205.3h311.9"/><path class="st8" d="M376 205.3h1M49.1 202.4h1"/><path class="st9" d="M59.5 202.6l311.8 5.4"/><path class="st8" d="M376 208.1h1M49.2 199.6h.9"/><path class="st9" d="M59.5 199.9l311.7 10.9"/><path class="st8" d="M375.9 211h1M49.3 196.7h1"/><path class="st9" d="M59.7 197.2l311.4 16.4"/><path class="st8" d="M375.8 213.8l1 .1M49.5 193.8l.9.1"/><path class="st9" d="M59.8 194.6l311.1 21.7"/><path class="st8" d="M375.6 216.7h1M49.7 191l.9.1"/><path class="st9" d="M60 191.9l310.7 27.2"/><path class="st8" d="M375.4 219.5l1 .1M50 188.1l.9.1"/><path class="st9" d="M60.3 189.2l310.2 32.6"/><path class="st8" d="M375.1 222.3l1 .1M50.3 185.3l.9.1"/><path class="st9" d="M60.6 186.6l309.5 38"/><path class="st8" d="M374.8 225.1l1 .2M50.3 185.3l.9.1"/><path class="st9" d="M60.6 186.6l309.5 38"/><path class="st8" d="M374.8 225.1l1 .2M49.1 208.1h1"/><path class="st9" d="M59.5 208l311.8-5.5"/><path class="st8" d="M376 202.4h1M49.2 211h.9"/><path class="st9" d="M59.5 210.6l311.7-10.8"/><path class="st8" d="M375.9 199.6h1M49.3 213.9l1-.1"/><path class="st9" d="M59.7 213.3L371.1 197"/><path class="st8" d="M375.8 196.7h1M49.5 216.7h.9"/><path class="st9" d="M59.8 216l311.1-21.8"/><path class="st8" d="M375.6 193.9l1-.1M49.7 219.6l.9-.1"/><path class="st9" d="M60 218.7l310.7-27.2"/><path class="st8" d="M375.4 191.1l1-.1M50 222.4l.9-.1"/><path class="st9" d="M60.3 221.3l310.2-32.6"/><path class="st8" d="M375.1 188.2l1-.1M50.3 225.3l.9-.2"/><path class="st9" d="M60.6 224l309.5-38"/><path class="st8" d="M374.8 185.4l1-.1M50.7 228.1l.9-.1"/><path class="st9" d="M60.9 226.7l308.9-43.4"/><path class="st8" d="M374.4 182.6l1-.1M51.1 230.9l.9-.1"/><path class="st9" d="M61.3 229.3l308.1-48.8"/><path class="st8" d="M374 179.8l1-.2M213 41.3v1"/><path class="st9" d="M213 51.7v311.9"/><path class="st8" d="M213 368.3v.9M215.9 41.3v1"/><path class="st9" d="M215.7 51.7l-5.4 311.8"/><path class="st8" d="M210.2 368.3v.9M218.8 41.4l-.1 1"/><path class="st9" d="M218.4 51.8l-10.9 311.7"/><path class="st8" d="M207.3 368.2v.9M221.6 41.5v1"/><path class="st9" d="M221.1 51.9l-16.4 311.5"/><path class="st8" d="M204.5 368.1l-.1.9M224.5 41.7l-.1 1"/><path class="st9" d="M223.7 52.1L202 363.2"/><path class="st8" d="M201.7 367.9l-.1.9M227.3 41.9l-.1 1"/><path class="st9" d="M226.4 52.3L199.2 363"/><path class="st8" d="M198.8 367.7l-.1.9M230.2 42.2l-.1 1"/><path class="st9" d="M229.1 52.5l-32.6 310.2"/><path class="st8" d="M196 367.4l-.1.9M233 42.5l-.1 1"/><path class="st9" d="M231.7 52.8l-38 309.6"/><path class="st8" d="M193.2 367.1l-.2.9M233 42.5l-.1 1"/><path class="st9" d="M231.7 52.8l-38 309.6"/><path class="st8" d="M193.2 367.1l-.2.9M210.2 41.3v1"/><path class="st9" d="M210.3 51.7l5.5 311.8"/><path class="st8" d="M215.9 368.3v.9M207.3 41.4v1"/><path class="st9" d="M207.7 51.8l10.9 311.7"/><path class="st8" d="M218.7 368.2l.1.9M204.4 41.5l.1 1"/><path class="st9" d="M205 51.9l16.3 311.5"/><path class="st8" d="M221.6 368.1v.9M201.6 41.7l.1 1"/><path class="st9" d="M202.3 52.1l21.8 311.1"/><path class="st8" d="M224.4 367.9l.1.9M198.7 41.9l.1 1"/><path class="st9" d="M199.6 52.3L226.8 363"/><path class="st8" d="M227.2 367.7l.1.9M195.9 42.2l.1 1"/><path class="st9" d="M197 52.5l32.6 310.2"/><path class="st8" d="M230.1 367.4l.1.9M193 42.5l.2 1"/><path class="st9" d="M194.3 52.8l38 309.6"/><path class="st8" d="M232.9 367.1l.1.9M190.2 42.9l.1 1"/><path class="st9" d="M191.7 53.2L235.1 362"/><path class="st8" d="M235.7 366.7l.1.9M187.4 43.3l.1 1"/><path class="st9" d="M189 53.6l48.8 308"/><path class="st8" d="M238.5 366.3l.2.9"/><circle class="st10" cx="213" cy="205.3" r="36"/><circle class="st10" cx="213" cy="205.3" r="24.1"/><g class="st6"><path class="st7" d="M211.3 214.7v-13h-5v-3.1c.7 0 1.4 0 2-.2s1.3-.3 1.8-.7c.5-.3 1-.7 1.3-1.2.4-.5.6-1.2.7-1.9h3.2v20.1h-4z"/></g><path class="st11" d="M178.8 271.4V235.3c0-2.6.5-5.9 0-8.5-.4-2.1-1.9-2.5-3.6-3.4-1.6-.8-1.3-1.2-2.3-2.8-.6-1-1.6-1.5-1.2-2.6.3-.9 2.3-1.6 3-2.2.8-.8 1.4-1.9 1.7-2.9.6-2 .5-4.2.5-6.2 0-1.9-.2-4.2-.6-6.1-.5-2.1-2.3-3.7-2.6-5.7-.4-2.4-1.1-4.4-1.1-6.9 0-1.6.7-2.8.3-4.3-.1-.4-.6-1-.8-1.7-.2-1.2 0-2.6-.1-3.8-.1-1-.3-2-.3-2.9-.1-1 .2-2.1.1-3.1 0-.4-.5-.8-.5-1.1 0-1.6.4-3.4.2-5-.3-1.7-1.5-3.9-2.1-5.6-.2-.5-.5-1.2-.6-1.9-.1-.4.4-.7.4-1-.1-.4-.7-.6-.8-.9-.4-1.5-1.1-3-1.5-4.5-.6-2.6 0-5.4-.1-8 0-1.5-.7-2.7-.4-4.1.4-1.8.8-2.3.3-4.2-.5-2.2-1.2-4.4-1.8-6.6h33.9c.6 0 2.2.3 2.7 0 2-1.2.7-8 .7-10.1 1.6.5 3.8-.4 4.9 1.4.7 1.1.4 3.5.7 4.7.5 2.7.9 5.3 1.4 7.9.3 1.8 2 3.5 3.9 3.9 1.1.3 2.9-.7 3.8-.3.6.3.4.8.7 1 1.8 1 5.4 0 7 1.1.9.6.4 1.6 1 2.4.9 1.2 1.9.9 3.3.6.8-.1 1.9 0 2.7-.4.8-.5 1-1.3 1.5-1.7 3.7-2.6 10 .7 13.5 1.9-2.4.1-1.5 2.4.4 2.6 2.4.3 2-.6 2.7 1.8.4 1.5 1.3 4.3 3 3.9 2-.4.6-2.2 1.5-3 .3-.3 2.7-.4 3.1-.2.6.4.3 1.1.7 1.6 1.2 1.6 2.2 1.7 4 2.5 1.7.8 1 1.4 2.3 2.6.3.3 1 0 1.4.2.2.1-.2.7-.1.8.9.4 1.6.3 2.6.3s1.3.1 2.5-.2c1.4-.4 1.9-.7 3-1.6 1.3-1 3.7-3 5.4-3.1-.6 1.6 1.6 4 3.2 3.9.6 0 1.2-.5 1.8-.5.3 0 .4.5.8.5.9 0 1.8-.2 2.8-.3 1.3-.1 3.7-1 5-.5 1.2.4 1.3 1.8 2.1 2.6 2.1 1.8 3.5-.7 5.4.4-1.2 1.9-4.6 3-6.6 3.9s-4.1 1.4-6.1 2.1c-4.6 1.6-8.2 4.2-11.8 7.4-2.6 2.2-4.7 5.2-7 7.7-1.1 1.2-2.5 2.1-3.6 3.2-2.8 2.8-6.7 4.8-9.1 8-.6.8-1.4 1.8-1.8 2.3-.2.2-.7 0-1 .6-.4.7 0 3.1 0 3.9 0 3 .8 7.3 0 10.2-.2.6-.2.4-.6 1-.8.9-.6.2-1.4.7-2.4 1.6-5.2 2.8-6.7 5.8-.8 1.7-2.4 2.8-2.3 5 .1 1.7.3 1.6 1.6 2.3 1.5.9.6-.1 1.7 1.5 1.9 2.7-1.1 4.8-1 7.9 0 .5.4 1 .3 1.6 0 .3-.5.2-.5.4-.1.5-.2.9-.1 1.6.1 1.8.6 3.5.2 5.4-.4 1.6-1 1.2-.2 2.5.5.7 1.9 1.5 2.5 2.2 1.5 1.4 3 1 4.7 2 1.8 1.1 1.4 2.5 3.5 3.2 2.4.7 3.9 2 5.2 4.2 1.2 2 2.4 4.5 4.7 5.5 1.2.5 3.3.3 4.3 1.3.3.3.5 1.3.8 1.7.6.8 1 .4 1.3 1.3.2.5.5 2.4.6 3 .2 1.3.4 5.4-.5 5.9-.7.4-3 0-3.8 0h-86.6c-.8.1-1.4.1-2.1.1z"/><path class="st12" d="M208.9 185.1l-3.4-3.3m-34.1-34.1l-3.3-3.4m78.2 78.3l-3.3-3.4m-24.8-24.7l-3.3-3.4m12.7 12.7l-3.3-3.3m-38.8-38.8l-3.4-3.3m31.5 31.4l-3.4-3.4m-34.1-34.1l-3.3-3.3m17.4 17.4l-3.4-3.4m12.7 12.7l-3.3-3.3m42.1 42.1l3.4 3.4m-18.8-18.7l-3.3-3.4m-24.8-24.7l-3.3-3.4m12.7 12.7l-3.3-3.3m31.4 31.4l-3.4-3.3m-51.5-51.5l3.4 3.3m52.8 52.9l3.4 3.3"/><path class="st0" d="M218.7 138l-.1-.1-28.5 28.5-16.5 16.5c.2.4.4.7.5.9.1.4.1.8.1 1.2l17.3-17.3 29.2-29.2c-.7-.1-1.5-.2-2-.5zm34.8 68.5c.5-.5.5-.4.6-1v-.2l-1.7 1.7c.5-.1.5.2 1.1-.5zm35.1-44.2c1-.3 1.9-.6 2.9-.9l5-5c-.2-.1-.5-.3-.7-.5-.3-.2-.5-.5-.6-.9l-7.7 7.7c.3-.2.7-.3 1.1-.4zM247.3 243l-1.5-1.2-29.6 29.6h2.7l28.4-28.4zm-1.9-7.5c-.1-.7-.2-1.4-.3-2.2v-.2l-38.3 38.3h2.7l35.9-35.9zm-41.8-108l5.1-5.1c-.1-.6-.2-1.2-.5-1.7-.1-.1-.2-.2-.2-.3l-4.3 4.3c.1 1 .1 2-.1 2.8zm-3.4 143.9l46.8-46.8c.2-.8.2-1.6-.2-2.4l-.4.4-48.9 48.9c.9-.1 1.8-.1 2.7-.1zm-29.2-142l-3.8 3.8.6 2.1 5.9-5.9H171zm87.9 120.7c-.5-.4-1.1-.7-1.7-1l-22.3 22.3h2.7l21.3-21.3zm-78.6-120.7l-12.7 12.7c.1.7.4 1.5.4 2.3l.1-.1 14.9-14.9h-2.7zm88.6 129.5c-.7-.2-1.6-.3-2.3-.4l-13 13h2.7l12.6-12.6zm3.9 12.1l-.5.5c.1 0 .2 0 .2-.1.1-.1.2-.2.3-.4zm-9.9-15.5c-.4-.5-.7-1.1-1-1.6l-17.5 17.5h2.7l15.8-15.9zm-9.4-9.3c-.2-.3-.6-.6-1-.8l-.6-.3-26.3 26.3h2.7l25.2-25.2zM243.2 218c0-.9.2-1.6.5-2.2l-2.1 2.1-53.5 53.5h2.7l52.2-52.2.3-.3c0-.3 0-.5-.1-.9zm29.6 46.3c-.1-.7-.3-1.5-.4-1.8-.1-.1-.1-.2-.2-.3l-9.2 9.2h2.7l7.1-7.1zm-61.3-128.6l-26 26-12.5 12.5c0 .4-.1.8 0 1.2 0 .5.1.9.1 1.4l13.7-13.7 26.2-26.2c-.6-.4-1.1-.8-1.5-1.2zm32.7 4.8l-40 40-26.1 26.1v2.7l27.4-27.4 40.6-40.6c-.6-.3-1.3-.6-1.9-.8zm-8.1-1.3l-36.5 36.5-22.9 22.9c.3.6.6 1.2.8 1.9l23.4-23.4 38-38c-1-.1-2-.1-2.8.1zm-9.3 2.3c-.4-.6-.3-1.2-.6-1.8l-31.4 31.4-20.6 20.6c.1.7.3 1.5.5 2.2l21.5-21.5 30.8-30.8c-.1 0-.2-.1-.2-.1zm-17.3-13.2L180.8 157l-8.3 8.3c.1.3.2.6.2.9.1.5.1 1 .1 1.5l9.4-9.4 27.7-27.7c-.2-.7-.3-1.5-.4-2.3zm-19.8 1.1l-18.2 18.2-3.5 3.5c0 .4.1.8.2 1.1.1.4.2.7.3 1.1l4.4-4.4 19.6-19.6c-1 .1-1.9.1-2.8.1zm10.3 0h-.9l-22.9 22.9-6.1 6.1c-.1.1-.1.2-.1.4.1.6.4 1.3.6 1.8l6.9-6.9 24.1-24.1c-.6-.1-1.3-.2-1.6-.2zm49.4 15.2l-40.5 40.5-35.1 35.1c.1.1.2.3.3.5.3.5.5.9.7 1.2l35.4-35.4 40.6-40.6c-.4-1.5-.4-1.3-1.4-1.3zm19.9 10.4c-.8 0-1.4.1-2-.1L223 199.2 180.1 242v2.7l44.2-44.2 45.5-45.5h-.5zm10.9-3.7l-52.5 52.5-47.5 47.5v2.7l48.9-48.9 52.2-52.2c-.6-.4-1-1-1.1-1.6zm8.5 2.5c-.7.1-1.3.2-1.9.2l-54.5 54.5-52.2 52.2v2.7l53.6-53.6 56.3-56.3c-.6.2-1 .3-1.3.3zm-30.3-6.8c-.3-.2-1.2-.2-2-.1l-1.4 1.4c0 .8.1 1.6-1.1 1.9-.3.1-.5 0-.7 0l-39.6 39.6-34.9 34.9c.5.4.9.8 1.2 1.5l35-35 43.8-43.8c0-.2-.1-.3-.3-.4zm-4.2 49L237 213.2l-56.9 56.9v1.3h1.4l56.9-56.9 16-16c-.1-.9-.2-1.7-.2-2.5zm8.9-44.9c-.4-.2-.7-.3-1.1-.5l-43.8 43.8-38.1 38.1c-.1 1-.1 1.9-.1 2.8l39.5-39.5 44.2-44.2c0-.2-.3-.3-.6-.5z"/><path class="st13" d="M195.1 243.1c-4.2.7-4.3 2.1-.5 5.5 11.7 10.4 24.5 11 38.3.5 3.6-2.7 3.7-5.3-.7-6l-18.6.5-18.5-.5z"/><ellipse class="st13" cx="194.7" cy="221.7" rx="12.9" ry="16.3"/><path class="st14" d="M194.7 211.8c3.5 0 6.4 4.4 6.4 9.9s-2.9 9.9-6.4 9.9-6.4-4.4-6.4-9.9 2.9-9.9 6.4-9.9z"/><ellipse class="st13" cx="230.7" cy="221.7" rx="12.9" ry="16.3"/><path class="st14" d="M230.7 211.8c3.5 0 6.4 4.4 6.4 9.9s-2.9 9.9-6.4 9.9-6.4-4.4-6.4-9.9 2.9-9.9 6.4-9.9z"/><path class="st0" d="M2013.2 375.4c-93.8 0-170.2-76.3-170.2-170.2S1919.3 35 2013.2 35s170.2 76.3 170.2 170.2-76.4 170.2-170.2 170.2zm0-327.9c-87 0-157.7 70.8-157.7 157.7S1926.2 363 2013.2 363s157.7-70.8 157.7-157.7-70.7-157.8-157.7-157.8z"/><path class="st1" d="M2013.2 38c92.2 0 167.3 75 167.3 167.3s-75.1 167.3-167.3 167.3-167.3-75.1-167.3-167.3S1921 38 2013.2 38m0 327.9c88.6 0 160.6-72.1 160.6-160.6s-72.1-160.6-160.6-160.6c-88.6 0-160.6 72.1-160.6 160.6s72 160.6 160.6 160.6m0-333.6c-95.4 0-173 77.6-173 173s77.6 173 173 173 173-77.6 173-173-77.6-173-173-173zm0 327.9c-85.4 0-154.9-69.5-154.9-154.9s69.5-154.9 154.9-154.9 154.9 69.5 154.9 154.9-69.5 154.9-154.9 154.9z"/><path class="st4" d="M1890.2 147.2c3.3-6.2 7.1-12 11.4-17.5m52.3 189.5c-25-12.8-45.1-33.7-57-59.2"/><path class="st5" d="M2077.6 307.3c-6.3 4.8-13 9-20.1 12.5"/><path class="st4" d="M2069.2 94.8c24.1 12.5 43.7 32.6 55.6 57m-184-49.5c5.8-3.9 12-7.4 18.4-10.3"/><g class="st6"><path class="st7" d="M1928.1 121.9l-8.1 8.1c-1-1-1.6-2.1-1.9-3.3-.3-1.2-.3-2.5 0-3.8.1-.7.2-1.3.4-2s.3-1.3.3-2 0-1.3-.1-1.8c-.1-.6-.4-1.1-.9-1.6-.2-.2-.5-.4-.8-.6-.3-.2-.6-.3-1-.4-.4-.1-.7 0-1.1.1-.4.1-.8.4-1.2.8-.4.4-.6.8-.7 1.2-.1.4-.1.8 0 1.2.1.4.3.8.6 1.3.3.4.6.9 1 1.3l-1.9 1.9c-.7-.7-1.2-1.3-1.6-2.1s-.6-1.5-.7-2.2c-.1-.8.1-1.5.3-2.2s.7-1.4 1.4-2.1c.7-.7 1.4-1.2 2.2-1.5.7-.2 1.4-.3 2.1-.3.7.1 1.3.2 1.8.5s1 .6 1.4 1c.5.5.8 1 1.1 1.5.2.5.4 1.1.5 1.6.1.6.1 1.1 0 1.7 0 .6-.1 1.2-.2 1.7-.1.6-.2 1.1-.3 1.7-.1.6-.2 1.1-.3 1.6-.1.5-.1 1-.1 1.4 0 .4.1.8.3 1.2l5.8-5.8 1.7 1.9zM1921.4 104.5c.8-.8 1.7-1.3 2.7-1.5s1.8-.1 2.7.2 1.8.8 2.6 1.4 1.6 1.3 2.3 1.9c.7.7 1.3 1.4 1.9 2.3.6.8 1.1 1.7 1.4 2.6.3.9.4 1.8.2 2.7-.1.9-.6 1.8-1.5 2.7-.8.8-1.7 1.3-2.6 1.5-.9.1-1.8.1-2.7-.2s-1.8-.8-2.6-1.4c-.8-.6-1.6-1.3-2.3-1.9s-1.3-1.4-1.9-2.3c-.6-.8-1.1-1.7-1.4-2.6-.3-.9-.4-1.8-.2-2.7.1-1 .6-1.9 1.4-2.7zm10.7 10.7c.4-.4.6-.9.7-1.4 0-.5-.1-1.1-.3-1.6-.2-.6-.6-1.2-1.1-1.8-.5-.6-1-1.2-1.7-1.9-.6-.6-1.2-1.2-1.8-1.6-.6-.5-1.2-.8-1.8-1.1-.6-.3-1.1-.4-1.7-.3-.5 0-1 .3-1.4.7-.4.4-.7.9-.7 1.4 0 .5.1 1.1.3 1.6.3.6.6 1.2 1.1 1.8s1 1.2 1.6 1.8c.6.6 1.2 1.2 1.9 1.7.6.5 1.2.9 1.8 1.1.6.2 1.1.4 1.6.3.6-.1 1.1-.3 1.5-.7z"/></g><path class="st5" d="M1890.2 147.2c3.3-6.2 7.1-12 11.4-17.5m52.3 189.5c-25-12.8-45.1-33.7-57-59.2m172.3-165.2c24.1 12.5 43.7 32.6 55.6 57m-184-49.5c5.8-3.9 12-7.4 18.4-10.3"/><g class="st6"><path class="st7" d="M2104.1 295.1l-1.5 1.5 2.8 2.8-1.8 1.8-2.8-2.8-5.1 5.1-1.9-1.9-2-12.2 1.8-1.8 7.5 7.5 1.5-1.5 1.5 1.5zm-8.4 5.4l3.6-3.6-5.2-5.2 1.6 8.8z"/></g><g class="st6"><path class="st7" d="M2099.5 281.3c.8-.8 1.7-1.3 2.6-1.5.9-.1 1.8-.1 2.7.2s1.8.8 2.6 1.4c.8.6 1.6 1.3 2.3 1.9s1.3 1.4 1.9 2.3c.6.8 1.1 1.7 1.4 2.6.3.9.4 1.8.2 2.7-.1.9-.6 1.8-1.5 2.7-.8.8-1.7 1.3-2.7 1.5-.9.1-1.8.1-2.7-.2s-1.8-.8-2.6-1.4c-.8-.6-1.6-1.3-2.3-1.9s-1.3-1.4-1.9-2.3c-.6-.8-1.1-1.7-1.4-2.6-.3-.9-.4-1.8-.2-2.7.2-1 .7-1.9 1.6-2.7zm10.7 10.7c.4-.4.6-.9.7-1.4s-.1-1.1-.3-1.6c-.2-.6-.6-1.2-1.1-1.8-.5-.6-1-1.2-1.7-1.9-.6-.6-1.2-1.2-1.8-1.6s-1.2-.8-1.8-1.1c-.6-.3-1.1-.4-1.7-.3-.5 0-1 .3-1.4.7-.4.4-.7.9-.7 1.4 0 .5.1 1.1.3 1.6.3.6.6 1.2 1.1 1.8s1 1.2 1.6 1.8c.6.6 1.2 1.2 1.9 1.7.6.5 1.2.9 1.8 1.1.6.2 1.1.4 1.6.3.6-.1 1-.3 1.5-.7z"/></g><path class="st5" d="M2060.6 277.4c-3.4 2.3-6.9 4.4-10.5 6.2m-114.2-117.8c1.7-3.1 3.6-6.2 5.6-9.1m31.1 126.5c-17-8.7-30.8-23-38.9-40.4m157.9-4.4c-1.4 3.4-3 6.8-4.8 10m-35.5-118.3c16.5 8.5 29.8 22.2 37.9 38.9m-121-36.7c2.6-1.5 5.2-2.9 7.9-4.1"/><g class="st6"><path class="st7" d="M1941.1 146.8c.4-.4.8-.8 1.1-1.3.3-.5.6-.9.7-1.4.2-.5.2-.9.2-1.4 0-.5-.2-.9-.5-1.3l1.6-1.6 11.8 11.8-2.1 2.1-8.3-8.3-2.9 2.9-1.6-1.5z"/></g><g class="st6"><path class="st7" d="M1948 136l6.1-6.1 1.7 1.7-4.7 4.7 2.4 3.6h.1c0-.6.1-1.1.3-1.7.2-.6.6-1 1-1.4.6-.6 1.2-1 1.9-1.3.7-.3 1.3-.4 2-.3.7 0 1.3.2 2 .5.6.3 1.3.8 1.8 1.3s.9 1 1.2 1.7c.3.7.6 1.4.6 2.1.1.7 0 1.5-.3 2.3-.3.8-.7 1.5-1.5 2.3-.6.6-1.2 1-1.8 1.4-.6.3-1.3.5-2 .6-.7.1-1.3 0-2-.2s-1.3-.6-1.9-1.2l1.9-1.9c.7.6 1.4.9 2.1.8.7 0 1.4-.4 2-1 .4-.4.7-.8.8-1.2.1-.4.2-.8.1-1.2-.1-.4-.2-.8-.5-1.2-.2-.4-.5-.8-.9-1.1-.3-.3-.7-.6-1.1-.8-.4-.2-.8-.3-1.2-.4-.4 0-.8 0-1.2.2s-.8.4-1.2.8c-.4.4-.7.9-.9 1.4s-.2 1 .1 1.6l-1.9 1.9-5-7.9z"/></g><g class="st6"><path class="st7" d="M2068 267.9c.3-.3.6-.6.9-1 .3-.4.4-.8.5-1.1.1-.4.1-.8 0-1.2-.1-.4-.3-.8-.7-1.1-.5-.5-1.1-.7-1.7-.7-.6 0-1.2.3-1.8.9-.3.3-.6.7-.7 1.1-.1.4-.1.8-.1 1.2.1.4.2.8.4 1.1.2.4.5.7.8 1l-1.9 1.9c-.6-.6-1-1.2-1.3-1.9s-.5-1.4-.5-2.1c0-.7.1-1.4.4-2.1.3-.7.7-1.3 1.3-1.9.5-.5 1-.8 1.6-1.2.6-.3 1.2-.5 1.8-.6s1.2-.1 1.8.1c.6.2 1.2.5 1.7 1.1.6.6 1 1.3 1.2 2 .2.7.1 1.5-.3 2.2.8-.5 1.7-.7 2.6-.6.9.2 1.8.6 2.5 1.4.6.6 1 1.2 1.2 1.8.2.7.3 1.4.2 2-.1.7-.3 1.4-.6 2.1-.3.7-.8 1.3-1.4 1.9-.7.7-1.4 1.2-2.1 1.5s-1.4.5-2.1.4c-.7 0-1.4-.2-2.1-.5-.7-.3-1.3-.8-2-1.4l1.9-1.9c.7.7 1.5 1.2 2.3 1.3.9.1 1.7-.2 2.4-1 .6-.6 1-1.4 1.1-2.2.1-.8-.2-1.5-.9-2.2-.5-.5-.9-.7-1.4-.8s-.9-.1-1.3.1-.9.4-1.2.7c-.4.3-.8.7-1.2 1.1l-1.3-1.4zM2070.7 255.4l6.1-6.1 1.7 1.7-4.7 4.7 2.4 3.6h.1c0-.6.1-1.1.3-1.7.2-.6.6-1 1-1.4.6-.6 1.2-1 1.9-1.3.7-.3 1.3-.4 2-.3.7 0 1.3.2 2 .5.6.3 1.3.8 1.8 1.3s.9 1 1.2 1.7c.3.7.6 1.4.6 2.1.1.7 0 1.5-.3 2.3-.3.8-.7 1.5-1.5 2.3-.6.6-1.2 1-1.8 1.4-.6.3-1.3.5-2 .6-.7.1-1.3 0-2-.2s-1.3-.6-1.9-1.2l1.9-1.9c.7.6 1.4.9 2.1.8.7 0 1.4-.4 2-1 .4-.4.7-.8.8-1.2.1-.4.2-.8.1-1.2-.1-.4-.2-.8-.5-1.2-.2-.4-.5-.8-.9-1.1-.3-.3-.7-.6-1.1-.8s-.8-.3-1.2-.4c-.4 0-.8 0-1.2.2-.4.2-.8.4-1.2.8-.4.4-.7.9-.9 1.4-.2.5-.2 1 .1 1.6l-1.9 1.9-5-7.9z"/></g><path class="st8" d="M1849.3 205.3h.9"/><path class="st9" d="M1859.6 205.3h311.9"/><path class="st8" d="M2176.2 205.3h1M1849.3 202.4h.9"/><path class="st9" d="M1859.7 202.6l311.8 5.4"/><path class="st8" d="M2176.2 208.1h.9M1849.4 199.6h.9"/><path class="st9" d="M1859.7 199.9l311.7 10.9"/><path class="st8" d="M2176.1 211h1M1849.5 196.7h.9"/><path class="st9" d="M1859.8 197.2l311.5 16.4"/><path class="st8" d="M2176 213.8l.9.1M1849.7 193.8l.9.1"/><path class="st9" d="M1860 194.6l311.1 21.7"/><path class="st8" d="M2175.8 216.7h1M1849.9 191l.9.1"/><path class="st9" d="M1860.2 191.9l310.7 27.2"/><path class="st8" d="M2175.6 219.5l.9.1M1850.2 188.1l.9.1"/><path class="st9" d="M1860.5 189.2l310.1 32.6"/><path class="st8" d="M2175.3 222.3l1 .1M1850.5 185.3l.9.1"/><path class="st9" d="M1860.8 186.6l309.5 38"/><path class="st8" d="M2175 225.1l.9.2M1850.5 185.3l.9.1"/><path class="st9" d="M1860.8 186.6l309.5 38"/><path class="st8" d="M2175 225.1l.9.2M1849.3 208.1h.9"/><path class="st9" d="M1859.7 208l311.8-5.5"/><path class="st8" d="M2176.2 202.4h.9M1849.4 211h.9"/><path class="st9" d="M1859.7 210.6l311.7-10.8"/><path class="st8" d="M2176.1 199.6h1M1849.5 213.9l.9-.1"/><path class="st9" d="M1859.8 213.3l311.5-16.3"/><path class="st8" d="M2176 196.7h.9M1849.7 216.7h.9"/><path class="st9" d="M1860 216l311.1-21.8"/><path class="st8" d="M2175.8 193.9l1-.1M1849.9 219.6l.9-.1"/><path class="st9" d="M1860.2 218.7l310.7-27.2"/><path class="st8" d="M2175.6 191.1l.9-.1M1850.2 222.4l.9-.1"/><path class="st9" d="M1860.5 221.3l310.1-32.6"/><path class="st8" d="M2175.3 188.2l1-.1M1850.5 225.3l.9-.2"/><path class="st9" d="M1860.8 224l309.5-38"/><path class="st8" d="M2175 185.4l.9-.1M1850.9 228.1l.9-.1"/><path class="st9" d="M1861.1 226.7l308.9-43.4"/><path class="st8" d="M2174.6 182.6l1-.1M1851.3 230.9l.9-.1"/><path class="st9" d="M1861.5 229.3l308.1-48.8"/><path class="st8" d="M2174.2 179.8l1-.2M2013.2 41.3v1"/><path class="st9" d="M2013.2 51.7v311.9"/><path class="st8" d="M2013.2 368.3v.9M2016.1 41.3v1"/><path class="st9" d="M2015.9 51.7l-5.5 311.8"/><path class="st8" d="M2010.4 368.3v.9M2018.9 41.4v1"/><path class="st9" d="M2018.6 51.8l-10.9 311.7"/><path class="st8" d="M2007.5 368.2v.9M2021.8 41.5l-.1 1"/><path class="st9" d="M2021.3 51.9l-16.4 311.5"/><path class="st8" d="M2004.7 368.1l-.1.9M2024.6 41.7v1"/><path class="st9" d="M2023.9 52.1l-21.7 311.1"/><path class="st8" d="M2001.8 367.9v.9M2027.5 41.9l-.1 1"/><path class="st9" d="M2026.6 52.3L1999.4 363"/><path class="st8" d="M1999 367.7l-.1.9M2030.4 42.2l-.1 1"/><path class="st9" d="M2029.3 52.5l-32.6 310.2"/><path class="st8" d="M1996.2 367.4l-.1.9M2033.2 42.5l-.1 1"/><path class="st9" d="M2031.9 52.8l-38 309.6"/><path class="st8" d="M1993.3 367.1l-.1.9M2033.2 42.5l-.1 1"/><path class="st9" d="M2031.9 52.8l-38 309.6"/><path class="st8" d="M1993.3 367.1l-.1.9M2010.4 41.3v1"/><path class="st9" d="M2010.5 51.7l5.5 311.8"/><path class="st8" d="M2016.1 368.3v.9M2007.5 41.4v1"/><path class="st9" d="M2007.9 51.8l10.8 311.7"/><path class="st8" d="M2018.9 368.2v.9M2004.6 41.5l.1 1"/><path class="st9" d="M2005.2 51.9l16.3 311.5"/><path class="st8" d="M2021.7 368.1l.1.9M2001.8 41.7v1"/><path class="st9" d="M2002.5 52.1l21.8 311.1"/><path class="st8" d="M2024.6 367.9v.9M1998.9 41.9l.1 1"/><path class="st9" d="M1999.8 52.3L2027 363"/><path class="st8" d="M2027.4 367.7l.1.9M1996.1 42.2l.1 1"/><path class="st9" d="M1997.2 52.5l32.6 310.2"/><path class="st8" d="M2030.3 367.4l.1.9M1993.2 42.5l.1 1"/><path class="st9" d="M1994.5 52.8l38 309.6"/><path class="st8" d="M2033.1 367.1l.1.9M1990.4 42.9l.1 1"/><path class="st9" d="M1991.8 53.2l43.4 308.8"/><path class="st8" d="M2035.9 366.7l.1.9M1987.6 43.3l.1 1"/><path class="st9" d="M1989.2 53.6l48.8 308"/><path class="st8" d="M2038.7 366.3l.2.9"/><circle class="st10" cx="2013.2" cy="205.3" r="36"/><circle class="st10" cx="2013.2" cy="205.3" r="24.1"/><g class="st6"><path class="st7" d="M2011.5 214.7v-13h-5v-3.1c.7 0 1.4 0 2-.2s1.3-.3 1.8-.7c.5-.3 1-.7 1.3-1.2s.6-1.2.7-1.9h3.2v20.1h-4z"/></g><path class="st11" d="M1979 271.4V235.3c0-2.6.5-5.9 0-8.5-.4-2.1-1.9-2.5-3.6-3.4-1.6-.8-1.3-1.2-2.3-2.8-.6-1-1.6-1.5-1.2-2.6.3-.9 2.3-1.6 3-2.2.8-.8 1.4-1.9 1.7-2.9.6-2 .5-4.2.5-6.2 0-1.9-.2-4.2-.6-6.1-.5-2.1-2.3-3.7-2.6-5.7-.4-2.4-1.1-4.4-1.1-6.9 0-1.6.7-2.8.3-4.3-.1-.4-.6-1-.8-1.7-.2-1.2 0-2.6-.1-3.8-.1-1-.3-2-.3-2.9-.1-1 .2-2.1.1-3.1 0-.4-.5-.8-.5-1.1 0-1.6.4-3.4.2-5-.3-1.7-1.5-3.9-2.1-5.6-.2-.5-.5-1.2-.6-1.9-.1-.4.4-.7.4-1-.1-.4-.7-.6-.8-.9-.4-1.5-1.1-3-1.5-4.5-.6-2.6 0-5.4-.1-8 0-1.5-.7-2.7-.4-4.1.4-1.8.8-2.3.3-4.2-.5-2.2-1.2-4.4-1.8-6.6h33.9c.6 0 2.2.3 2.7 0 2-1.2.7-8 .7-10.1 1.6.5 3.8-.4 4.9 1.4.7 1.1.4 3.5.7 4.7.5 2.7.9 5.3 1.4 7.9.3 1.8 2 3.5 3.9 3.9 1.1.3 2.9-.7 3.8-.3.6.3.4.8.7 1 1.8 1 5.4 0 7 1.1.9.6.4 1.6 1 2.4.9 1.2 1.9.9 3.3.6.8-.1 1.9 0 2.7-.4.8-.5 1-1.3 1.5-1.7 3.7-2.6 10 .7 13.5 1.9-2.4.1-1.5 2.4.4 2.6 2.4.3 2-.6 2.7 1.8.4 1.5 1.3 4.3 3 3.9 2-.4.6-2.2 1.5-3 .3-.3 2.7-.4 3.1-.2.6.4.3 1.1.7 1.6 1.2 1.6 2.2 1.7 4 2.5 1.7.8 1 1.4 2.3 2.6.3.3 1 0 1.4.2.2.1-.2.7-.1.8.9.4 1.6.3 2.6.3s1.3.1 2.5-.2c1.4-.4 1.9-.7 3-1.6 1.3-1 3.7-3 5.4-3.1-.6 1.6 1.6 4 3.2 3.9.6 0 1.2-.5 1.8-.5.3 0 .4.5.8.5.9 0 1.8-.2 2.8-.3 1.3-.1 3.7-1 5-.5 1.2.4 1.3 1.8 2.1 2.6 2.1 1.8 3.5-.7 5.4.4-1.2 1.9-4.6 3-6.6 3.9s-4.1 1.4-6.1 2.1c-4.6 1.6-8.2 4.2-11.8 7.4-2.6 2.2-4.7 5.2-7 7.7-1.1 1.2-2.5 2.1-3.6 3.2-2.8 2.8-6.7 4.8-9.1 8-.6.8-1.4 1.8-1.8 2.3-.2.2-.7 0-1 .6-.4.7 0 3.1 0 3.9 0 3 .8 7.3 0 10.2-.2.6-.2.4-.6 1-.8.9-.6.2-1.4.7-2.4 1.6-5.2 2.8-6.7 5.8-.8 1.7-2.4 2.8-2.3 5 .1 1.7.3 1.6 1.6 2.3 1.5.9.6-.1 1.7 1.5 1.9 2.7-1.1 4.8-1 7.9 0 .5.4 1 .3 1.6 0 .3-.5.2-.5.4-.1.5-.2.9-.1 1.6.1 1.8.6 3.5.2 5.4-.4 1.6-1 1.2-.2 2.5.5.7 1.9 1.5 2.5 2.2 1.5 1.4 3 1 4.7 2 1.8 1.1 1.4 2.5 3.5 3.2 2.4.7 3.9 2 5.2 4.2 1.2 2 2.4 4.5 4.7 5.5 1.2.5 3.3.3 4.3 1.3.3.3.5 1.3.8 1.7.6.8 1 .4 1.3 1.3.2.5.5 2.4.6 3 .2 1.3.4 5.4-.5 5.9-.7.4-3 0-3.8 0h-86.6c-.8.1-1.5.1-2.1.1z"/><path class="st12" d="M2032.5 208.5l-3.4-3.3m-15.4-15.4l-3.3-3.4m23.4 23.5l3.4 3.3m9.3 9.4l-3.3-3.4m-24.8-24.7l-3.3-3.4m23.4 23.4l3.3 3.4m-18.7-18.7l-3.3-3.4m8 8l-3.4-3.3m-29.4-29.4l-3.3-3.4m-15.4-15.4l-3.3-3.3m17.3 17.4l-3.3-3.4m12.7 12.7l-3.3-3.3m-10.7-10.7l-3.4-3.3m-4.7-4.7l3.4 3.3m28.1 28.1l-3.4-3.3m-34.1-34.1l-3.3-3.4m36.1 36.1l-3.4-3.3"/><path class="st0" d="M2053.7 206.5c.5-.5.5-.4.6-1v-.2l-1.7 1.7c.5-.1.5.2 1.1-.5zm-8.1 29c-.1-.7-.2-1.4-.3-2.2v-.2l-38.3 38.3h2.7l35.9-35.9zm1.9 7.5l-1.5-1.2-29.6 29.6h2.7l28.4-28.4zm41.3-80.7c1-.3 2-.6 3-1l5-5c-.2-.1-.5-.3-.7-.5-.3-.2-.5-.5-.6-.8l-7.7 7.6c.3-.1.6-.2 1-.3zm-88.4 109.1l46.8-46.8c.2-.8.2-1.6-.2-2.4l-.4.4-48.8 48.9c.8-.1 1.7-.1 2.6-.1zm-29.3-142l-3.8 3.8.6 2.1 5.9-5.9h-2.7zm32.7-1.9l5.1-5.1c-.1-.6-.2-1.2-.5-1.7-.1-.1-.2-.2-.2-.3l-4.3 4.3c.1 1 0 2-.1 2.8zM2073 271l-.5.5c.1 0 .2 0 .2-.1.1-.1.2-.2.3-.4zm-18.6-75l-17.2 17.2-56.9 56.9v1.3h1.3l56.9-56.9 16-16c0-.9-.1-1.7-.1-2.5zm18.6 68.3c-.1-.7-.3-1.5-.4-1.8-.1-.1-.1-.2-.2-.3l-9.2 9.2h2.7l7.1-7.1zm-9.9-8.8c-.4-.5-.7-1.1-1-1.6l-17.5 17.5h2.7l15.8-15.9zm6 3.4c-.7-.2-1.6-.3-2.3-.4l-13 13h2.7l12.6-12.6zm-10-8.8c-.5-.4-1.1-.7-1.7-1l-22.3 22.3h2.7l21.3-21.3zm-5.5-3.9c-.2-.3-.6-.6-1-.8l-.6-.3-26.3 26.3h2.7l25.2-25.2zm-10.2-28.2c0-.9.2-1.6.5-2.2l-2.1 2.1-53.6 53.5h2.7l52.2-52.2.3-.3c.1-.3 0-.5 0-.9zm-16.4-76.5c-.4-.6-.3-1.3-.6-1.8l-31.4 31.4-20.6 20.6c.1.7.3 1.5.5 2.2l21.5-21.5 30.8-30.8c-.1 0-.2-.1-.2-.1zm-8.1-3.5l-.1-.1-28.4 28.5-16.5 16.5c.2.4.4.7.5.9.1.4.1.8.1 1.2l17.3-17.3 29.2-29.2c-.9-.1-1.6-.2-2.1-.5zm-9.2-9.6L1981 157l-8.3 8.3c.1.3.2.6.2.9.1.5.1 1 .1 1.5l9.4-9.3 27.7-27.7c-.2-.8-.3-1.6-.4-2.3zm2 7.3l-26 26-12.5 12.5c0 .4-.1.8 0 1.2 0 .5.1.9.1 1.4L1987 163l26.2-26.2c-.6-.3-1.1-.7-1.5-1.1zm-11.6-6.3h-.9l-22.9 22.9-6.1 6.1c-.1.1-.1.3-.1.4.1.6.4 1.3.6 1.8l6.9-6.9 24.1-24.1c-.5-.1-1.2-.2-1.6-.2zm-19.6 0l-12.7 12.7c.1.7.4 1.5.4 2.3l.1-.1 14.9-14.9h-2.7zm108.4 24.4c-.7.1-1.3.2-2 .3l-54.4 54.5-52.2 52.2v2.7l53.6-53.6 56.2-56.3c-.5.1-.9.2-1.2.2zm-99-24.4l-18.2 18.2-3.5 3.5c0 .4.1.8.2 1.1.1.4.2.7.3 1.1l4.4-4.4 19.6-19.6c-1.1.1-2 .1-2.8.1zm79.5 25.6c-.8 0-1.4.1-2-.1l-44.3 44.3-42.9 42.8v2.7l44.2-44.2L2070 155h-.6zm-6.1-3.9c-.4-.2-.7-.3-1-.5l-43.8 43.8-38.1 38c-.1 1-.1 1.9-.1 2.8l39.5-39.5 44.3-44.2c-.2-.1-.5-.2-.8-.4zm17 .2l-52.5 52.6-47.5 47.6v2.7l48.9-48.9 52.2-52.2c-.5-.6-.9-1.2-1.1-1.8zm-21.7-4.3c-.3-.2-1.2-.2-2-.1l-1.4 1.4c0 .8.1 1.6-1.1 1.9-.3.1-.5 0-.7 0l-39.6 39.6-34.8 34.9c.5.4.9.8 1.2 1.5l35-35 43.8-43.8c-.2-.2-.2-.3-.4-.4zm-14.3-6.5l-39.9 40-26.1 26.1v2.7l27.4-27.4 40.5-40.6c-.5-.3-1.2-.6-1.9-.8zm5.3 4.1l-40.5 40.5-35.1 35.1c.1.1.2.3.3.5.3.5.5.9.7 1.2l35.4-35.4 40.6-40.6c-.4-1.5-.4-1.3-1.4-1.3zm-13.3-5.4l-36.6 36.5-22.9 22.9c.3.6.6 1.2.8 1.9l23.4-23.4 38-38c-.9-.1-1.9-.1-2.7.1z"/><path class="st13" d="M1995.2 243.1c-4.2.7-4.3 2.1-.5 5.5 11.7 10.4 24.5 11 38.3.5 3.6-2.7 3.7-5.3-.7-6l-18.6.5-18.5-.5z"/><ellipse class="st13" cx="1994.9" cy="221.7" rx="12.9" ry="16.3"/><path class="st14" d="M1994.9 211.8c3.5 0 6.4 4.4 6.4 9.9s-2.9 9.9-6.4 9.9-6.4-4.4-6.4-9.9 2.9-9.9 6.4-9.9z"/><ellipse class="st13" cx="2030.9" cy="221.7" rx="12.9" ry="16.3"/><path class="st14" d="M2030.9 211.8c3.5 0 6.4 4.4 6.4 9.9s-2.9 9.9-6.4 9.9-6.4-4.4-6.4-9.9 2.9-9.9 6.4-9.9z"/><path class="st0" d="M1109 923.1c-77.6 0-150.6-30.2-205.4-85.1-54.9-54.9-85.1-127.8-85.1-205.4s30.2-150.6 85.1-205.4c54.9-54.9 127.8-85.1 205.4-85.1s150.6 30.2 205.4 85.1c54.9 54.9 85.1 127.8 85.1 205.4s-30.2 150.6-85.1 205.4c-54.9 54.8-127.8 85.1-205.4 85.1zm0-562c-72.5 0-140.7 28.2-191.9 79.5-51.3 51.3-79.5 119.4-79.5 191.9s28.2 140.7 79.5 191.9c51.3 51.3 119.4 79.5 191.9 79.5s140.7-28.2 191.9-79.5c51.3-51.3 79.5-119.4 79.5-191.9s-28.2-140.7-79.5-191.9c-51.3-51.3-119.4-79.5-191.9-79.5z"/><path class="st1" d="M1109 345.8c76.6 0 148.6 29.8 202.7 84 54.2 54.2 84 126.2 84 202.7s-29.8 148.6-84 202.7c-54.2 54.2-126.2 84-202.7 84s-148.6-29.8-202.7-84-84-126.2-84-202.7 29.8-148.6 84-202.7 126.1-84 202.7-84m0 562c73.5 0 142.7-28.6 194.6-80.6 52-52 80.6-121.1 80.6-194.6s-28.6-142.7-80.6-194.6c-52-52-121.1-80.6-194.6-80.6S966.3 386 914.4 438c-52 52-80.6 121.1-80.6 194.6s28.6 142.7 80.6 194.6c51.9 52 121 80.6 194.6 80.6m0-569.6c-78.6 0-152.5 30.6-208.1 86.2s-86.2 129.5-86.2 208.1 30.6 152.5 86.2 208.1c55.6 55.6 129.5 86.2 208.1 86.2s152.5-30.6 208.1-86.2c55.6-55.6 86.2-129.5 86.2-208.1s-30.6-152.5-86.2-208.1-129.5-86.2-208.1-86.2zm0 561.9c-71.5 0-138.7-27.8-189.2-78.4-50.5-50.5-78.4-117.8-78.4-189.2s27.8-138.7 78.4-189.2c50.5-50.5 117.8-78.4 189.2-78.4 71.5 0 138.7 27.8 189.2 78.4 50.5 50.5 78.4 117.8 78.4 189.2s-27.8 138.7-78.4 189.2c-50.5 50.6-117.8 78.4-189.2 78.4z"/><path class="st15" d="M915.2 532.9c5.7-10.6 12.2-20.6 19.5-30m72.6 324.8c-42.8-21.9-77.4-57.7-97.7-101.5"/><path class="st16" d="M1236.4 807.3c-10.7 8.2-22.3 15.4-34.5 21.4"/><path class="st15" d="M1205 443.2c41.3 21.4 74.9 55.8 95.2 97.8m-315.4-85c9.9-6.7 20.5-12.6 31.5-17.6"/><path class="st16" d="M915.2 532.9c5.7-10.6 12.2-20.6 19.5-30m72.6 324.8c-42.8-21.9-77.4-57.7-97.7-101.5m295.4-283c41.3 21.4 74.9 55.8 95.2 97.8m-315.4-85c9.9-6.7 20.5-12.6 31.5-17.6m173.8 317.7c-5.7 4-11.8 7.5-18.1 10.7M976.5 564.9c2.9-5.4 6.1-10.6 9.7-15.5m53.1 216.6c-29.2-15-52.8-39.4-66.7-69.2m270.8-7.4c-2.4 5.9-5.1 11.6-8.1 17.1m-61.1-202.8c28.2 14.6 51.1 38.1 65 66.7m-207.4-62.9c4.4-2.6 8.9-4.9 13.6-7.1"/><path class="st17" d="M828 632.5h1.6"/><path class="st18" d="M845.8 632.5h534.4"/><path class="st17" d="M1388.3 632.5h1.7M828 627.6h1.6"/><path class="st18" d="M845.8 627.9l534.4 9.4"/><path class="st17" d="M1388.3 637.4h1.6M828.1 622.7l1.7.1"/><path class="st18" d="M845.9 623.3l534.2 18.7"/><path class="st17" d="M1388.1 642.3h1.7M828.4 617.8l1.6.1"/><path class="st18" d="M846.1 618.7l533.8 28"/><path class="st17" d="M1387.9 647.1l1.7.1M828.7 612.9l1.6.1"/><path class="st18" d="M846.4 614.2l533.2 37.2"/><path class="st17" d="M1387.6 652l1.7.1M829 608l1.7.2"/><path class="st18" d="M846.8 609.6l532.4 46.6"/><path class="st17" d="M1387.3 656.9l1.6.1M829.5 603.2l1.6.1"/><path class="st18" d="M847.2 605l531.6 55.9"/><path class="st17" d="M1386.8 661.7l1.6.2M830.1 598.3l1.6.2"/><path class="st18" d="M847.7 600.4l530.5 65.2"/><path class="st17" d="M1386.2 666.6l1.7.2M830.1 598.3l1.6.2"/><path class="st18" d="M847.7 600.4l530.5 65.2"/><path class="st17" d="M1386.2 666.6l1.7.2"/><g><path class="st17" d="M828 637.4h1.6"/><path class="st18" d="M845.8 637.1l534.4-9.3"/><path class="st17" d="M1388.3 627.6h1.6"/></g><g><path class="st17" d="M828.1 642.3h1.7"/><path class="st18" d="M845.9 641.7l534.2-18.6"/><path class="st17" d="M1388.1 622.8l1.7-.1"/></g><g><path class="st17" d="M828.4 647.2l1.6-.1"/><path class="st18" d="M846.1 646.3l533.8-28"/><path class="st17" d="M1387.9 617.9l1.7-.1"/></g><g><path class="st17" d="M828.7 652.1l1.6-.1"/><path class="st18" d="M846.4 650.9l533.2-37.3"/><path class="st17" d="M1387.6 613l1.7-.1"/></g><g><path class="st17" d="M829 657l1.7-.1"/><path class="st18" d="M846.8 655.5l532.4-46.6"/><path class="st17" d="M1387.3 608.2l1.6-.2"/></g><g><path class="st17" d="M829.5 661.9l1.6-.2"/><path class="st18" d="M847.2 660l531.6-55.8"/><path class="st17" d="M1386.8 603.3l1.6-.1"/></g><g><path class="st17" d="M830.1 666.8l1.6-.2"/><path class="st18" d="M847.7 664.6l530.5-65.1"/><path class="st17" d="M1386.2 598.5l1.7-.2"/></g><g><path class="st17" d="M830.7 671.6l1.6-.2"/><path class="st18" d="M848.3 669.2l529.3-74.4"/><path class="st17" d="M1385.6 593.6l1.6-.2"/></g><g><path class="st17" d="M831.4 676.5l1.6-.3"/><path class="st18" d="M849 673.7l527.9-83.6"/><path class="st17" d="M1384.9 588.8l1.6-.2"/></g><g><path class="st17" d="M1109 351.5v1.7"/><path class="st18" d="M1109 369.3v534.5"/><path class="st17" d="M1109 911.9v1.6"/></g><g><path class="st17" d="M1113.9 351.6l-.1 1.6"/><path class="st18" d="M1113.6 369.4l-9.4 534.4"/><path class="st17" d="M1104.1 911.8v1.7"/></g><g><path class="st17" d="M1118.8 351.7l-.1 1.6"/><path class="st18" d="M1118.1 369.5l-18.6 534.1"/><path class="st17" d="M1099.2 911.7v1.6"/></g><g><path class="st17" d="M1123.7 351.9l-.1 1.6"/><path class="st18" d="M1122.7 369.7l-27.9 533.7"/><path class="st17" d="M1094.3 911.5v1.6"/></g><g><path class="st17" d="M1128.6 352.2l-.2 1.6"/><path class="st18" d="M1127.3 370L1090 903.1"/><path class="st17" d="M1089.5 911.2l-.1 1.6"/></g><g><path class="st17" d="M1133.5 352.6l-.2 1.6"/><path class="st18" d="M1131.9 370.3l-46.6 532.5"/><path class="st17" d="M1084.6 910.8l-.1 1.6"/></g><g><path class="st17" d="M1138.3 353.1l-.1 1.6"/><path class="st18" d="M1136.5 370.8l-55.9 531.5"/><path class="st17" d="M1079.8 910.3l-.2 1.7"/></g><g><path class="st17" d="M1143.2 353.6l-.2 1.6"/><path class="st18" d="M1141 371.3l-65.1 530.5"/><path class="st17" d="M1074.9 909.8l-.2 1.6"/></g><g><path class="st17" d="M1143.2 353.6l-.2 1.6"/><path class="st18" d="M1141 371.3l-65.1 530.5"/><path class="st17" d="M1074.9 909.8l-.2 1.6"/></g><g><path class="st17" d="M1104.1 351.6v1.6"/><path class="st18" d="M1104.4 369.4l9.3 534.4"/><path class="st17" d="M1113.8 911.8l.1 1.7"/></g><g><path class="st17" d="M1099.2 351.7v1.6"/><path class="st18" d="M1099.8 369.5l18.6 534.1"/><path class="st17" d="M1118.7 911.7l.1 1.6"/></g><g><path class="st17" d="M1094.3 351.9v1.6"/><path class="st18" d="M1095.2 369.7l28 533.7"/><path class="st17" d="M1123.6 911.5l.1 1.6"/></g><g><path class="st17" d="M1089.4 352.2l.1 1.6"/><path class="st18" d="M1090.6 370l37.3 533.1"/><path class="st17" d="M1128.4 911.2l.2 1.6"/></g><g><path class="st17" d="M1084.5 352.6l.1 1.6"/><path class="st18" d="M1086 370.3l46.6 532.5"/><path class="st17" d="M1133.3 910.8l.2 1.6"/></g><g><path class="st17" d="M1079.6 353.1l.2 1.6"/><path class="st18" d="M1081.4 370.8l55.9 531.5"/><path class="st17" d="M1138.2 910.3l.1 1.7"/></g><g><path class="st17" d="M1074.7 353.6l.2 1.6"/><path class="st18" d="M1076.9 371.3l65.1 530.5"/><path class="st17" d="M1143 909.8l.2 1.6"/></g><g><path class="st17" d="M1069.9 354.3l.2 1.6"/><path class="st18" d="M1072.3 371.9l74.4 529.3"/><path class="st17" d="M1147.8 909.2l.3 1.6"/></g><g><path class="st17" d="M1065 355l.3 1.6"/><path class="st18" d="M1067.8 372.6l83.6 527.9"/><path class="st17" d="M1152.7 908.4l.2 1.7"/></g><circle class="st19" cx="1109" cy="632.5" r="83.3"/><circle class="st19" cx="1109" cy="632.5" r="61.7"/><circle class="st19" cx="1109" cy="632.5" r="41.3"/><g class="st6"><path class="st7" d="M1105.9 648.6v-22.3h-8.6V621c1.2 0 2.4-.1 3.5-.3s2.1-.6 3-1.1c.9-.5 1.7-1.3 2.3-2.1.6-.9 1-2 1.2-3.3h5.5v34.4h-6.9z"/></g><path class="st0" d="M213 1231.8c-93.8 0-170.2-76.3-170.2-170.2S119.2 891.5 213 891.5s170.2 76.3 170.2 170.2-76.3 170.1-170.2 170.1zm0-327.9c-87 0-157.7 70.8-157.7 157.7 0 87 70.8 157.7 157.7 157.7 87 0 157.7-70.8 157.7-157.7.1-86.9-70.7-157.7-157.7-157.7z"/><path class="st1" d="M213 894.4c92.2 0 167.3 75 167.3 167.3 0 92.2-75 167.3-167.3 167.3-92.2 0-167.3-75-167.3-167.3S120.8 894.4 213 894.4m0 327.9c88.6 0 160.6-72.1 160.6-160.6s-72-160.6-160.6-160.6-160.6 72-160.6 160.6 72.1 160.6 160.6 160.6m0-333.7c-95.4 0-173 77.6-173 173s77.6 173 173 173 173-77.6 173-173c.1-95.3-77.6-173-173-173zm0 328c-85.4 0-154.9-69.5-154.9-154.9S127.6 906.8 213 906.8s154.9 69.5 154.9 154.9-69.5 154.9-154.9 154.9z"/><path class="st4" d="M100 1003.6c3.3-6.2 7.1-12 11.4-17.5m42.3 189.5c-25-12.8-45.1-33.7-57-59.2"/><path class="st5" d="M297.4 1163.7c-6.3 4.8-13 9-20.1 12.5"/><path class="st4" d="M279 951.2c24.1 12.5 43.7 32.6 55.6 57m-184-49.5c5.8-3.9 12-7.4 18.4-10.3"/><g class="st6"><path class="st7" d="M127.9 978.3l-8.1 8.1c-1-1-1.6-2.1-1.9-3.3-.3-1.2-.3-2.5 0-3.8.1-.7.2-1.3.4-2s.3-1.3.3-2 0-1.3-.1-1.8c-.1-.6-.4-1.1-.9-1.6-.2-.2-.5-.4-.8-.6s-.6-.3-1-.4c-.4-.1-.7 0-1.1.1-.4.1-.8.4-1.2.8-.4.4-.6.8-.7 1.2-.1.4-.1.8 0 1.2.1.4.3.8.6 1.3.3.4.6.9 1 1.3l-1.9 1.9c-.7-.7-1.2-1.3-1.6-2.1s-.6-1.5-.7-2.2c-.1-.8.1-1.5.3-2.2.3-.7.7-1.4 1.4-2.1.7-.7 1.4-1.2 2.2-1.5s1.4-.3 2.1-.3c.7.1 1.3.2 1.8.5s1 .6 1.4 1c.5.5.8 1 1.1 1.5.2.5.4 1.1.5 1.6.1.6.1 1.1 0 1.7 0 .6-.1 1.2-.2 1.7-.1.6-.2 1.1-.3 1.7-.1.6-.2 1.1-.3 1.6-.1.5-.1 1-.1 1.4 0 .4.1.8.3 1.2l5.8-5.8 1.7 1.9zM121.2 960.9c.8-.8 1.7-1.3 2.7-1.5s1.8-.1 2.7.2c.9.3 1.8.8 2.6 1.4s1.6 1.3 2.3 1.9c.7.7 1.3 1.4 1.9 2.3.6.8 1.1 1.7 1.4 2.6.3.9.4 1.8.2 2.7-.1.9-.6 1.8-1.5 2.7-.8.8-1.7 1.3-2.6 1.5-.9.1-1.8.1-2.7-.2s-1.8-.8-2.6-1.4c-.8-.6-1.6-1.3-2.3-1.9-.7-.7-1.3-1.4-1.9-2.3-.6-.8-1.1-1.7-1.4-2.6-.3-.9-.4-1.8-.2-2.7s.5-1.9 1.4-2.7zm10.7 10.7c.4-.4.6-.9.7-1.4 0-.5-.1-1.1-.3-1.6-.2-.6-.6-1.2-1.1-1.8-.5-.6-1-1.2-1.7-1.9-.6-.6-1.2-1.2-1.8-1.6s-1.2-.8-1.8-1.1c-.6-.3-1.1-.4-1.7-.3-.5 0-1 .3-1.4.7-.4.4-.7.9-.7 1.4 0 .5.1 1.1.3 1.6.3.6.6 1.2 1.1 1.8.5.6 1 1.2 1.6 1.8.6.6 1.2 1.2 1.9 1.7.6.5 1.2.8 1.8 1.1s1.1.4 1.6.3c.6-.1 1-.3 1.5-.7z"/></g><path class="st5" d="M100 1003.6c3.3-6.2 7.1-12 11.4-17.5m42.3 189.5c-25-12.8-45.1-33.7-57-59.2M279 951.2c24.1 12.5 43.7 32.6 55.6 57m-184-49.5c5.8-3.9 12-7.4 18.4-10.3"/><g class="st6"><path class="st7" d="M303.9 1151.6l-1.5 1.5 2.8 2.8-1.8 1.8-2.8-2.8-5.1 5.1-1.9-1.9-2-12.2 1.8-1.8 7.5 7.5 1.5-1.5 1.5 1.5zm-8.4 5.4l3.6-3.6-5.2-5.2 1.6 8.8z"/></g><g class="st6"><path class="st7" d="M299.2 1137.7c.8-.8 1.7-1.3 2.6-1.5.9-.1 1.8-.1 2.7.2s1.8.8 2.6 1.4c.8.6 1.6 1.3 2.3 1.9.7.7 1.3 1.4 1.9 2.3.6.8 1.1 1.7 1.4 2.6.3.9.4 1.8.2 2.7-.1.9-.6 1.8-1.5 2.7s-1.7 1.3-2.6 1.5c-.9.1-1.8.1-2.7-.2-.9-.3-1.8-.8-2.6-1.4-.8-.6-1.6-1.3-2.3-1.9-.7-.7-1.3-1.4-1.9-2.3-.6-.8-1.1-1.7-1.4-2.6-.3-.9-.4-1.8-.2-2.7.2-1 .7-1.8 1.5-2.7zm10.7 10.7c.4-.4.6-.9.7-1.4 0-.5-.1-1.1-.3-1.6-.2-.6-.6-1.2-1.1-1.8s-1-1.2-1.7-1.9c-.6-.6-1.2-1.2-1.8-1.6-.6-.5-1.2-.8-1.8-1.1-.6-.3-1.1-.4-1.7-.3-.5 0-1 .3-1.4.7-.4.4-.7.9-.7 1.4 0 .5.1 1.1.3 1.6.3.6.6 1.2 1.1 1.8.5.6 1 1.2 1.6 1.8.6.6 1.2 1.2 1.9 1.7.6.5 1.2.9 1.8 1.1.6.2 1.1.4 1.6.3s1.1-.3 1.5-.7z"/></g><path class="st5" d="M260.4 1133.8c-3.4 2.3-6.9 4.4-10.5 6.2m-114.2-117.8c1.7-3.1 3.6-6.2 5.6-9.1m31.1 126.5c-17-8.7-30.8-23-38.9-40.4m158-4.4c-1.4 3.4-3 6.8-4.8 10m-35.6-118.3c16.5 8.5 29.8 22.2 37.9 38.9m-121-36.7c2.6-1.5 5.2-2.9 7.9-4.1"/><g class="st6"><path class="st7" d="M140.9 1003.2c.4-.4.8-.8 1.1-1.3.3-.4.5-.9.7-1.4.2-.5.2-.9.2-1.4 0-.5-.2-.9-.5-1.3l1.6-1.6 11.8 11.8-2.1 2.1-8.3-8.3-2.9 2.9-1.6-1.5z"/></g><g class="st6"><path class="st7" d="M147.8 992.4l6.1-6.1 1.7 1.7-4.7 4.7 2.4 3.6h.1c0-.6.1-1.1.3-1.7.2-.6.6-1 1-1.4.6-.6 1.2-1 1.9-1.3s1.3-.4 2-.3c.7 0 1.3.2 2 .5.6.3 1.3.8 1.8 1.3s.9 1 1.2 1.7.6 1.4.6 2.1 0 1.5-.3 2.3c-.3.8-.7 1.5-1.5 2.3-.6.6-1.2 1-1.8 1.4-.6.3-1.3.5-2 .6-.7.1-1.3 0-2-.2s-1.3-.6-1.9-1.2l1.9-1.9c.7.6 1.4.9 2.1.8.7 0 1.4-.4 2-1 .4-.4.7-.8.8-1.2.1-.4.2-.8.1-1.2-.1-.4-.2-.8-.5-1.2-.2-.4-.5-.8-.9-1.1-.3-.3-.7-.6-1.1-.8-.4-.2-.8-.3-1.2-.4-.4 0-.8 0-1.2.2s-.8.4-1.2.8c-.4.4-.7.9-.9 1.4-.2.5-.2 1 .1 1.6l-1.9 1.9-5-7.9z"/></g><g class="st6"><path class="st7" d="M267.8 1124.3c.3-.3.6-.6.9-1 .3-.4.4-.8.5-1.1.1-.4.1-.8 0-1.2-.1-.4-.3-.8-.7-1.1-.5-.5-1.1-.7-1.7-.7-.6 0-1.2.3-1.8.9-.3.3-.6.7-.7 1.1s-.1.8-.1 1.2c.1.4.2.8.4 1.1.2.4.5.7.8 1l-1.9 1.9c-.6-.6-1-1.2-1.3-1.9-.3-.7-.5-1.4-.5-2.1 0-.7.1-1.4.4-2.1.3-.7.7-1.3 1.3-1.9.5-.5 1-.8 1.6-1.2.6-.3 1.2-.5 1.8-.6s1.2-.1 1.8.1c.6.2 1.2.5 1.7 1.1.6.6 1 1.3 1.2 2 .2.7.1 1.5-.3 2.2.8-.5 1.7-.7 2.6-.6.9.2 1.8.6 2.5 1.4.6.6 1 1.2 1.2 1.8.2.7.3 1.4.2 2-.1.7-.3 1.4-.6 2.1-.3.7-.8 1.3-1.4 1.9-.7.7-1.4 1.2-2.1 1.5s-1.4.5-2.1.4c-.7 0-1.4-.2-2.1-.5-.7-.3-1.3-.8-2-1.4l1.9-1.9c.7.7 1.5 1.2 2.3 1.3s1.7-.2 2.4-1c.6-.6 1-1.4 1.1-2.2.1-.8-.2-1.5-.9-2.2-.5-.5-.9-.7-1.4-.8-.4-.1-.9-.1-1.3.1s-.9.4-1.2.7-.8.7-1.2 1.1l-1.3-1.4zM270.5 1111.8l6.1-6.1 1.7 1.7-4.7 4.7 2.4 3.6h.1c0-.6.1-1.1.3-1.7.2-.6.6-1 1-1.4.6-.6 1.2-1 1.9-1.3.7-.3 1.3-.4 2-.3.7 0 1.3.2 2 .5.6.3 1.3.8 1.8 1.3s.9 1 1.2 1.7c.3.7.6 1.4.6 2.1.1.7 0 1.5-.3 2.3-.3.8-.7 1.5-1.5 2.3-.6.6-1.2 1-1.8 1.4-.6.3-1.3.5-2 .6-.7.1-1.3 0-2-.2s-1.3-.6-1.9-1.2l1.9-1.9c.7.6 1.4.9 2.1.8.7 0 1.4-.4 2-1 .4-.4.7-.8.8-1.2.1-.4.2-.8.1-1.2-.1-.4-.2-.8-.5-1.2-.2-.4-.5-.8-.9-1.1-.3-.3-.7-.6-1.1-.8s-.8-.3-1.2-.4-.8 0-1.2.2c-.4.2-.8.4-1.2.8-.4.4-.7.9-.9 1.4s-.2 1 .1 1.6l-1.9 1.9-5-7.9z"/></g><g><path class="st8" d="M49.1 1061.7h.9"/><path class="st9" d="M59.4 1061.7h311.9"/><path class="st8" d="M376 1061.7h1"/></g><g><path class="st8" d="M49.1 1058.8h1"/><path class="st9" d="M59.5 1059l311.8 5.4"/><path class="st8" d="M376 1064.5h1"/></g><g><path class="st8" d="M49.2 1056h.9"/><path class="st9" d="M59.5 1056.3l311.7 10.9"/><path class="st8" d="M375.9 1067.4h1"/></g><g><path class="st8" d="M49.3 1053.1h1"/><path class="st9" d="M59.7 1053.6l311.4 16.4"/><path class="st8" d="M375.8 1070.2l1 .1"/></g><g><path class="st8" d="M49.5 1050.2l.9.1"/><path class="st9" d="M59.8 1051l311.1 21.7"/><path class="st8" d="M375.6 1073l1 .1"/></g><g><path class="st8" d="M49.7 1047.4l.9.1"/><path class="st9" d="M60 1048.3l310.7 27.2"/><path class="st8" d="M375.4 1075.9l1 .1"/></g><g><path class="st8" d="M50 1044.5l.9.1"/><path class="st9" d="M60.3 1045.6l310.2 32.6"/><path class="st8" d="M375.1 1078.7l1 .1"/></g><g><path class="st8" d="M50.3 1041.7l.9.1"/><path class="st9" d="M60.6 1043l309.5 38"/><path class="st8" d="M374.8 1081.5l1 .2"/></g><g><path class="st8" d="M50.3 1041.7l.9.1"/><path class="st9" d="M60.6 1043l309.5 38"/><path class="st8" d="M374.8 1081.5l1 .2"/></g><g><path class="st8" d="M49.1 1064.5h1"/><path class="st9" d="M59.5 1064.4l311.8-5.5"/><path class="st8" d="M376 1058.8h1"/></g><g><path class="st8" d="M49.2 1067.4h.9"/><path class="st9" d="M59.5 1067l311.7-10.8"/><path class="st8" d="M375.9 1056h1"/></g><g><path class="st8" d="M49.3 1070.3l1-.1"/><path class="st9" d="M59.7 1069.7l311.4-16.3"/><path class="st8" d="M375.8 1053.1h1"/></g><g><path class="st8" d="M49.5 1073.1l.9-.1"/><path class="st9" d="M59.8 1072.4l311.1-21.8"/><path class="st8" d="M375.6 1050.3l1-.1"/></g><g><path class="st8" d="M49.7 1076l.9-.1"/><path class="st9" d="M60 1075.1l310.7-27.2"/><path class="st8" d="M375.4 1047.5l1-.1"/></g><g><path class="st8" d="M50 1078.8l.9-.1"/><path class="st9" d="M60.3 1077.7l310.2-32.6"/><path class="st8" d="M375.1 1044.6l1-.1"/></g><g><path class="st8" d="M50.3 1081.7l.9-.2"/><path class="st9" d="M60.6 1080.4l309.5-38"/><path class="st8" d="M374.8 1041.8l1-.1"/></g><g><path class="st8" d="M50.7 1084.5l.9-.1"/><path class="st9" d="M60.9 1083l308.9-43.4"/><path class="st8" d="M374.4 1039l1-.1"/></g><g><path class="st8" d="M51.1 1087.3l.9-.1"/><path class="st9" d="M61.3 1085.7l308.1-48.8"/><path class="st8" d="M374 1036.2l1-.2"/></g><g><path class="st8" d="M213 897.7v1"/><path class="st9" d="M213 908.1V1220"/><path class="st8" d="M213 1224.7v.9"/></g><g><path class="st8" d="M215.9 897.7v1"/><path class="st9" d="M215.7 908.1l-5.4 311.8"/><path class="st8" d="M210.2 1224.7v.9"/></g><g><path class="st8" d="M218.8 897.8l-.1 1"/><path class="st9" d="M218.4 908.2l-10.9 311.7"/><path class="st8" d="M207.3 1224.6v.9"/></g><g><path class="st8" d="M221.6 897.9v1"/><path class="st9" d="M221.1 908.3l-16.4 311.4"/><path class="st8" d="M204.5 1224.5l-.1.9"/></g><g><path class="st8" d="M224.5 898.1l-.1 1"/><path class="st9" d="M223.7 908.5L202 1219.6"/><path class="st8" d="M201.7 1224.3l-.1.9"/></g><g><path class="st8" d="M227.3 898.3l-.1 1"/><path class="st9" d="M226.4 908.7l-27.2 310.7"/><path class="st8" d="M198.8 1224.1l-.1.9"/></g><g><path class="st8" d="M230.2 898.6l-.1 1"/><path class="st9" d="M229.1 908.9l-32.6 310.2"/><path class="st8" d="M196 1223.8l-.1.9"/></g><g><path class="st8" d="M233 898.9l-.1 1"/><path class="st9" d="M231.7 909.2l-38 309.6"/><path class="st8" d="M193.2 1223.5l-.2.9"/></g><g><path class="st8" d="M233 898.9l-.1 1"/><path class="st9" d="M231.7 909.2l-38 309.6"/><path class="st8" d="M193.2 1223.5l-.2.9"/></g><g><path class="st8" d="M210.2 897.7v1"/><path class="st9" d="M210.3 908.1l5.5 311.8"/><path class="st8" d="M215.9 1224.7v.9"/></g><g><path class="st8" d="M207.3 897.8v1"/><path class="st9" d="M207.7 908.2l10.9 311.7"/><path class="st8" d="M218.7 1224.6l.1.9"/></g><g><path class="st8" d="M204.4 897.9l.1 1"/><path class="st9" d="M205 908.3l16.3 311.4"/><path class="st8" d="M221.6 1224.5v.9"/></g><g><path class="st8" d="M201.6 898.1l.1 1"/><path class="st9" d="M202.3 908.5l21.8 311.1"/><path class="st8" d="M224.4 1224.3l.1.9"/></g><g><path class="st8" d="M198.7 898.3l.1 1"/><path class="st9" d="M199.6 908.7l27.2 310.7"/><path class="st8" d="M227.2 1224.1l.1.9"/></g><g><path class="st8" d="M195.9 898.6l.1 1"/><path class="st9" d="M197 908.9l32.6 310.2"/><path class="st8" d="M230.1 1223.8l.1.9"/></g><g><path class="st8" d="M193 898.9l.2 1"/><path class="st9" d="M194.3 909.2l38 309.6"/><path class="st8" d="M232.9 1223.5l.1.9"/></g><g><path class="st8" d="M190.2 899.3l.1 1"/><path class="st9" d="M191.7 909.6l43.4 308.8"/><path class="st8" d="M235.7 1223.1l.1.9"/></g><g><path class="st8" d="M187.4 899.7l.1 1"/><path class="st9" d="M189 910l48.8 308"/><path class="st8" d="M238.5 1222.7l.2.9"/></g><circle class="st10" cx="213" cy="1061.7" r="36"/><circle class="st10" cx="213" cy="1061.7" r="24.1"/><g class="st6"><path class="st7" d="M211.3 1071.1v-13h-5v-3.1c.7 0 1.4 0 2-.2s1.3-.3 1.8-.7c.5-.3 1-.7 1.3-1.2.4-.5.6-1.2.7-1.9h3.2v20.1h-4z"/></g><path class="st11" d="M178.8 1127.8V1091.7c0-2.6.5-5.9 0-8.5-.4-2.1-1.9-2.5-3.6-3.4-1.6-.8-1.3-1.2-2.3-2.8-.6-1-1.6-1.5-1.2-2.6.3-.9 2.3-1.6 3-2.2.8-.8 1.4-1.9 1.7-2.9.6-2 .5-4.2.5-6.2 0-1.9-.2-4.2-.6-6.1-.5-2.1-2.3-3.7-2.6-5.7-.4-2.4-1.1-4.4-1.1-6.9 0-1.6.7-2.8.3-4.3-.1-.4-.6-1-.8-1.7-.2-1.2 0-2.6-.1-3.8-.1-1-.3-2-.3-2.9-.1-1 .2-2.1.1-3.1 0-.4-.5-.8-.5-1.1 0-1.6.4-3.4.2-5-.3-1.7-1.5-3.9-2.1-5.6-.2-.5-.5-1.2-.6-1.9-.1-.4.4-.7.4-1-.1-.4-.7-.6-.8-.9-.4-1.5-1.1-3-1.5-4.5-.6-2.6 0-5.4-.1-8 0-1.5-.7-2.7-.4-4.1.4-1.8.8-2.3.3-4.2-.5-2.2-1.2-4.4-1.8-6.6h33.9c.6 0 2.2.3 2.7 0 2-1.2.7-8 .7-10.1 1.6.5 3.8-.4 4.9 1.4.7 1.1.4 3.5.7 4.7.5 2.7.9 5.3 1.4 7.9.3 1.8 2 3.5 3.9 3.9 1.1.3 2.9-.7 3.8-.3.6.3.4.8.7 1 1.8 1 5.4 0 7 1.1.9.6.4 1.6 1 2.4.9 1.2 1.9.9 3.3.6.8-.1 1.9 0 2.7-.4.8-.5 1-1.3 1.5-1.7 3.7-2.6 10 .7 13.5 1.9-2.4.1-1.5 2.4.4 2.6 2.4.3 2-.6 2.7 1.8.4 1.5 1.3 4.3 3 3.9 2-.4.6-2.2 1.5-3 .3-.3 2.7-.4 3.1-.2.6.4.3 1.1.7 1.6 1.2 1.6 2.2 1.7 4 2.5 1.7.8 1 1.4 2.3 2.6.3.3 1 0 1.4.2.2.1-.2.7-.1.8.9.4 1.6.3 2.6.3s1.3.1 2.5-.2c1.4-.4 1.9-.7 3-1.6 1.3-1 3.7-3 5.4-3.1-.6 1.6 1.6 4 3.2 3.9.6 0 1.2-.5 1.8-.5.3 0 .4.5.8.5.9 0 1.8-.2 2.8-.3 1.3-.1 3.7-1 5-.5 1.2.4 1.3 1.8 2.1 2.6 2.1 1.8 3.5-.7 5.4.4-1.2 1.9-4.6 3-6.6 3.9s-4.1 1.4-6.1 2.1c-4.6 1.6-8.2 4.2-11.8 7.4-2.6 2.2-4.7 5.2-7 7.7-1.1 1.2-2.5 2.1-3.6 3.2-2.8 2.8-6.7 4.8-9.1 8-.6.8-1.4 1.8-1.8 2.3-.2.2-.7 0-1 .6-.4.7 0 3.1 0 3.9 0 3 .8 7.3 0 10.2-.2.6-.2.4-.6 1-.8.9-.6.2-1.4.7-2.4 1.6-5.2 2.8-6.7 5.8-.8 1.7-2.4 2.8-2.3 5 .1 1.7.3 1.6 1.6 2.3 1.5.9.6-.1 1.7 1.5 1.9 2.7-1.1 4.8-1 7.9 0 .5.4 1 .3 1.6 0 .3-.5.2-.5.4-.1.5-.2.9-.1 1.6.1 1.8.6 3.5.2 5.4-.4 1.6-1 1.2-.2 2.5.5.7 1.9 1.5 2.5 2.2 1.5 1.4 3 1 4.7 2 1.8 1.1 1.4 2.5 3.5 3.2 2.4.7 3.9 2 5.2 4.2 1.2 2 2.4 4.5 4.7 5.5 1.2.5 3.3.3 4.3 1.3.3.3.5 1.3.8 1.7.6.8 1 .4 1.3 1.3.2.5.5 2.4.6 3 .2 1.3.4 5.4-.5 5.9-.7.4-3 0-3.8 0h-86.6c-.8.1-1.4.1-2.1.1z"/><g><path class="st12" d="M227.6 1060.2l-3.3-3.3m8 8l-3.4-3.3m-10.7-10.7l-3.3-3.4m8 8l-3.3-3.3m-48.2-48.2l-3.3-3.3m78.2 78.3l-3.3-3.4m-9.4-9.4l3.4 3.4m-60.9-60.9l-3.3-3.3m40.8 40.8l-3.4-3.4m28.1 28.1l3.4 3.4m-46.9-46.8l-3.3-3.4m-14.1-14l3.4 3.3m23.4 23.4l-3.3-3.3m-15.4-15.4l-3.4-3.4m26.8 26.8l-3.4-3.3m-6-6.1l-3.3-3.3m-6-6l-3.4-3.4"/><path class="st0" d="M245.4 1091.9c-.1-.7-.2-1.4-.3-2.2v-.2l-38.4 38.3h2.7l36-35.9zm-45.3 35.9L247 1081c.2-.8.2-1.6-.2-2.4l-.4.4-48.9 48.9c.9-.1 1.7-.1 2.6-.1zm-29.2-142l-3.8 3.8.6 2.1 5.9-5.9h-2.7zm72.3 88.6c0-.9.2-1.6.5-2.2l-2.1 2.1-53.5 53.5h2.7l52.2-52.2.3-.3c0-.3 0-.5-.1-.9zm10.3-11.5c.5-.5.5-.4.6-1v-.2l-1.7 1.7c.5-.1.5.2 1.1-.5zm-49.9-79l5.1-5.1c-.1-.6-.2-1.2-.5-1.6-.1-.1-.2-.2-.2-.3l-4.3 4.3c.1.9.1 1.9-.1 2.7zm85 34.8c.9-.3 1.9-.6 2.9-.9l5-5c-.2-.1-.4-.3-.7-.5-.3-.2-.5-.6-.7-.9l-7.7 7.7c.4-.2.8-.3 1.2-.4zm-15.8 102c-.1-.7-.3-1.5-.4-1.8-.1-.1-.1-.2-.2-.3l-9.2 9.2h2.7l7.1-7.1zm-19.3-18.1c-.2-.3-.6-.6-1-.8l-.6-.3-26.3 26.3h2.7l25.2-25.2zm15.4 12.7c-.7-.2-1.6-.3-2.3-.4l-13 13h2.7l12.6-12.6zm3.9 12l-.5.5c.1 0 .2 0 .2-.1.1 0 .2-.1.3-.4zm-18.6-74.9l-17.2 17.2-56.9 56.9v1.3h1.4l56.9-56.9 16-16c-.1-.9-.2-1.7-.2-2.5zm4.7 54.1c-.5-.4-1.1-.7-1.7-1l-22.4 22.4h2.7l21.4-21.4zm4 5.4c-.4-.5-.7-1.1-1-1.6l-17.5 17.5h2.7l15.8-15.9zm-15.6-12.5l-1.5-1.2-29.6 29.6h2.7l28.4-28.4zm-35.8-107.3l-26 26-12.5 12.5c0 .4-.1.8 0 1.2 0 .5.1.9.1 1.4l13.7-13.7 26.2-26.2c-.5-.4-1.1-.8-1.5-1.2zm7.2 2.3l-.1-.1-28.5 28.4-16.5 16.5c.2.4.4.7.5.9.1.4.1.8.1 1.2l17.3-17.3 29.2-29.2c-.7 0-1.5-.1-2-.4zm8.1 3.5c-.4-.6-.3-1.2-.6-1.8l-31.4 31.4-20.6 20.6c.1.7.3 1.5.5 2.2l21.5-21.5L227 998c-.1 0-.2-.1-.2-.1zm-17.3-13.2l-28.7 28.7-8.3 8.3c.1.3.2.6.2.9.1.5.1 1 .1 1.5l9.4-9.4 27.7-27.8c-.2-.7-.3-1.4-.4-2.2zm-29.2 1.1l-12.7 12.7c.1.7.4 1.5.4 2.3l.1-.1 14.9-14.9h-2.7zm9.4 0l-18.3 18.2-3.5 3.5c0 .4.1.8.2 1.1.1.4.2.7.3 1.1l4.4-4.4 19.6-19.6c-.9.1-1.8.1-2.7.1zm10.3 0h-.9l-22.9 22.9-6.1 6.1c-.1.1-.1.2-.1.4.1.6.4 1.3.6 1.8l6.9-6.9 24.1-24.1c-.6-.1-1.3-.2-1.6-.2zm80.2 21.9l-52.6 52.5-47.5 47.5v2.7l48.9-48.9 52.2-52.2c-.5-.4-.9-1-1-1.6zm-10.9 3.7c-.8 0-1.4.1-2.1-.1l-44.3 44.3-42.9 42.9v2.7l44.2-44.2 45.5-45.5c-.1-.1-.3-.1-.4-.1zm19.4-1.2c-.7.1-1.3.2-1.9.2l-54.5 54.5-52.2 52.2v2.7l53.6-53.5L290 1010c-.5.1-1 .2-1.3.2zm-25.6-2.7c-.4-.2-.7-.3-1.1-.5l-43.8 43.8-38.1 38.1c-.1 1-.1 1.9-.1 2.8l39.5-39.5 44.2-44.3c-.1-.1-.3-.2-.6-.4zm-4.7-4.1c-.3-.2-1.2-.2-2-.1l-1.4 1.4c0 .8.1 1.6-1.1 1.9-.3.1-.5 0-.7 0l-39.6 39.6-34.9 34.8c.5.4.9.8 1.2 1.5l35-35 43.8-43.8c0-.1-.1-.2-.3-.3zm-22.4-7.8l-36.5 36.5-22.9 22.9c.3.6.6 1.2.8 1.9l23.4-23.4 38-38c-.9-.1-1.9-.1-2.8.1zm8.2 1.3l-40 40-26.1 26.1v2.7l27.4-27.4 40.6-40.6c-.6-.3-1.3-.6-1.9-.8zm5.2 4.1l-40.5 40.5-35.1 35.1c.1.1.2.3.3.5.3.5.5.9.7 1.2l35.4-35.4 40.6-40.6c-.4-1.5-.4-1.3-1.4-1.3z"/></g><path class="st13" d="M195.1 1099.4c-4.2.7-4.3 2.1-.5 5.5 11.7 10.4 24.5 11 38.3.5 3.6-2.7 3.7-5.3-.7-6l-18.6.5-18.5-.5z"/><ellipse class="st13" cx="194.7" cy="1078.1" rx="12.9" ry="16.3"/><path class="st14" d="M194.7 1068.2c3.5 0 6.4 4.4 6.4 9.9s-2.9 9.9-6.4 9.9-6.4-4.4-6.4-9.9c.1-5.5 2.9-9.9 6.4-9.9z"/><ellipse class="st13" cx="230.7" cy="1078.1" rx="12.9" ry="16.3"/><path class="st14" d="M230.7 1068.2c3.5 0 6.4 4.4 6.4 9.9s-2.9 9.9-6.4 9.9-6.4-4.4-6.4-9.9 2.9-9.9 6.4-9.9z"/><g><path class="st0" d="M2013.2 1231.8c-93.8 0-170.2-76.3-170.2-170.2s76.3-170.2 170.2-170.2 170.2 76.3 170.2 170.2-76.4 170.2-170.2 170.2zm0-327.9c-87 0-157.7 70.8-157.7 157.7 0 87 70.8 157.7 157.7 157.7 87 0 157.7-70.8 157.7-157.7.1-86.9-70.7-157.7-157.7-157.7z"/><path class="st1" d="M2013.2 894.4c92.2 0 167.3 75 167.3 167.3 0 92.2-75.1 167.3-167.3 167.3s-167.3-75-167.3-167.3 75.1-167.3 167.3-167.3m0 327.9c88.6 0 160.6-72.1 160.6-160.6s-72.1-160.6-160.6-160.6c-88.6 0-160.6 72.1-160.6 160.6s72 160.6 160.6 160.6m0-333.7c-95.4 0-173 77.6-173 173s77.6 173 173 173 173-77.6 173-173c0-95.3-77.6-173-173-173zm0 328c-85.4 0-154.9-69.5-154.9-154.9s69.5-154.9 154.9-154.9 154.9 69.5 154.9 154.9-69.5 154.9-154.9 154.9z"/></g><path class="st4" d="M1900.2 1003.6c3.3-6.2 7.1-12 11.4-17.5m42.3 189.5c-25-12.8-45.1-33.7-57-59.2"/><path class="st5" d="M2087.6 1163.7c-6.3 4.8-13 9-20.1 12.5"/><path class="st4" d="M2069.2 951.2c24.1 12.5 43.7 32.6 55.6 57m-194-49.5c5.8-3.9 12-7.4 18.4-10.3"/><g class="st6"><path class="st7" d="M1928.1 978.3l-8.1 8.1c-1-1-1.6-2.1-1.9-3.3-.3-1.2-.3-2.5 0-3.8.1-.7.2-1.3.4-2s.3-1.3.3-2 0-1.3-.1-1.8c-.1-.6-.4-1.1-.9-1.6-.2-.2-.5-.4-.8-.6s-.6-.3-1-.4c-.4-.1-.7 0-1.1.1-.4.1-.8.4-1.2.8-.4.4-.6.8-.7 1.2-.1.4-.1.8 0 1.2.1.4.3.8.6 1.3.3.4.6.9 1 1.3l-1.9 1.9c-.7-.7-1.2-1.3-1.6-2.1s-.6-1.5-.7-2.2c-.1-.8.1-1.5.3-2.2.3-.7.7-1.4 1.4-2.1.7-.7 1.4-1.2 2.2-1.5.7-.2 1.4-.3 2.1-.3.7.1 1.3.2 1.8.5s1 .6 1.4 1c.5.5.8 1 1.1 1.5.2.5.4 1.1.5 1.6.1.6.1 1.1 0 1.7 0 .6-.1 1.2-.2 1.7-.1.6-.2 1.1-.3 1.7-.1.6-.2 1.1-.3 1.6-.1.5-.1 1-.1 1.4 0 .4.1.8.3 1.2l5.8-5.8 1.7 1.9zM1921.4 960.9c.8-.8 1.7-1.3 2.7-1.5.9-.1 1.8-.1 2.7.2.9.3 1.8.8 2.6 1.4s1.6 1.3 2.3 1.9c.7.7 1.3 1.4 1.9 2.3.6.8 1.1 1.7 1.4 2.6.3.9.4 1.8.2 2.7-.1.9-.6 1.8-1.5 2.7-.8.8-1.7 1.3-2.6 1.5-.9.1-1.8.1-2.7-.2s-1.8-.8-2.6-1.4-1.6-1.3-2.3-1.9c-.7-.7-1.3-1.4-1.9-2.3s-1.1-1.7-1.4-2.6c-.3-.9-.4-1.8-.2-2.7s.6-1.9 1.4-2.7zm10.7 10.7c.4-.4.6-.9.7-1.4 0-.5-.1-1.1-.3-1.6-.2-.6-.6-1.2-1.1-1.8-.5-.6-1-1.2-1.7-1.9s-1.2-1.2-1.8-1.6c-.6-.5-1.2-.8-1.8-1.1-.6-.3-1.1-.4-1.7-.3-.5 0-1 .3-1.4.7-.4.4-.7.9-.7 1.4s.1 1.1.3 1.6c.3.6.6 1.2 1.1 1.8.5.6 1 1.2 1.6 1.8.6.6 1.2 1.2 1.9 1.7.6.5 1.2.8 1.8 1.1s1.1.4 1.6.3c.6-.1 1.1-.3 1.5-.7z"/></g><path class="st5" d="M1900.2 1003.6c3.3-6.2 7.1-12 11.4-17.5m42.3 189.5c-25-12.8-45.1-33.7-57-59.2m172.3-165.2c24.1 12.5 43.7 32.6 55.6 57m-194-49.5c5.8-3.9 12-7.4 18.4-10.3"/><g class="st6"><path class="st7" d="M2104.1 1151.6l-1.5 1.5 2.8 2.8-1.8 1.8-2.8-2.8-5.1 5.1-1.9-1.9-2-12.2 1.8-1.8 7.5 7.5 1.5-1.5 1.5 1.5zm-8.4 5.4l3.6-3.6-5.2-5.2 1.6 8.8z"/></g><g class="st6"><path class="st7" d="M2099.5 1137.7c.8-.8 1.7-1.3 2.7-1.5.9-.1 1.8-.1 2.7.2s1.8.8 2.6 1.4c.8.6 1.6 1.3 2.3 1.9.7.7 1.3 1.4 1.9 2.3.6.8 1.1 1.7 1.4 2.6s.4 1.8.2 2.7-.6 1.8-1.5 2.7c-.8.8-1.7 1.3-2.6 1.5-.9.1-1.8.1-2.7-.2-.9-.3-1.8-.8-2.6-1.4s-1.6-1.3-2.3-1.9c-.7-.7-1.3-1.4-1.9-2.3-.6-.8-1.1-1.7-1.4-2.6-.3-.9-.4-1.8-.2-2.7 0-1 .5-1.8 1.4-2.7zm10.7 10.7c.4-.4.6-.9.7-1.4 0-.5-.1-1.1-.3-1.6-.2-.6-.6-1.2-1.1-1.8-.5-.6-1-1.2-1.7-1.9-.6-.6-1.2-1.2-1.8-1.6-.6-.5-1.2-.8-1.8-1.1-.6-.3-1.1-.4-1.7-.3-.5 0-1 .3-1.4.7-.4.4-.7.9-.7 1.4s.1 1.1.3 1.6c.3.6.6 1.2 1.1 1.8.5.6 1 1.2 1.6 1.8.6.6 1.2 1.2 1.9 1.7.6.5 1.2.9 1.8 1.1.6.2 1.1.4 1.6.3.6 0 1-.3 1.5-.7z"/></g><path class="st5" d="M2060.6 1133.8c-3.4 2.3-6.9 4.4-10.5 6.2m-114.2-117.8c1.7-3.1 3.6-6.2 5.6-9.1m31.1 126.5c-17-8.7-30.8-23-38.9-40.4m157.9-4.4c-1.4 3.4-3 6.8-4.8 10m-35.5-118.3c16.5 8.5 29.8 22.2 37.9 38.9m-121-36.7c2.6-1.5 5.2-2.9 7.9-4.1"/><g class="st6"><path class="st7" d="M1941.1 1003.2c.4-.4.8-.8 1.1-1.3.3-.4.5-.9.7-1.4s.2-.9.2-1.4c0-.5-.2-.9-.5-1.3l1.6-1.6 11.8 11.8-2.1 2.1-8.3-8.3-2.9 2.9-1.6-1.5z"/></g><g class="st6"><path class="st7" d="M1948 992.4l6.1-6.1 1.7 1.7-4.7 4.7 2.4 3.6h.1c0-.6.1-1.1.3-1.7.2-.6.6-1 1-1.4.6-.6 1.2-1 1.9-1.3s1.3-.4 2-.3c.7 0 1.3.2 2 .5.6.3 1.3.8 1.8 1.3s.9 1 1.2 1.7.6 1.4.6 2.1 0 1.5-.3 2.3c-.3.8-.7 1.5-1.5 2.3-.6.6-1.2 1-1.8 1.4-.6.3-1.3.5-2 .6-.7.1-1.3 0-2-.2s-1.3-.6-1.9-1.2l1.9-1.9c.7.6 1.4.9 2.1.8.7 0 1.4-.4 2-1 .4-.4.7-.8.8-1.2.1-.4.2-.8.1-1.2-.1-.4-.2-.8-.5-1.2-.2-.4-.5-.8-.9-1.1-.3-.3-.7-.6-1.1-.8-.4-.2-.8-.3-1.2-.4-.4 0-.8 0-1.2.2s-.8.4-1.2.8c-.4.4-.7.9-.9 1.4-.2.5-.2 1 .1 1.6l-1.9 1.9-5-7.9z"/></g><g class="st6"><path class="st7" d="M2068 1124.3c.3-.3.6-.6.9-1 .3-.4.4-.8.5-1.1.1-.4.1-.8 0-1.2-.1-.4-.3-.8-.7-1.1-.5-.5-1.1-.7-1.7-.7-.6 0-1.2.3-1.8.9-.3.3-.6.7-.7 1.1-.1.4-.1.8-.1 1.2.1.4.2.8.4 1.1.2.4.5.7.8 1l-1.9 1.9c-.6-.6-1-1.2-1.3-1.9-.3-.7-.5-1.4-.5-2.1 0-.7.1-1.4.4-2.1.3-.7.7-1.3 1.3-1.9.5-.5 1-.8 1.6-1.2.6-.3 1.2-.5 1.8-.6s1.2 0 1.8.1c.6.2 1.2.5 1.7 1.1.6.6 1 1.3 1.2 2 .2.7.1 1.5-.3 2.2.8-.5 1.7-.7 2.6-.6.9.2 1.8.6 2.5 1.4.6.6 1 1.2 1.2 1.8.2.7.3 1.4.2 2-.1.7-.3 1.4-.6 2.1-.3.7-.8 1.3-1.4 1.9-.7.7-1.4 1.2-2.1 1.5s-1.4.5-2.1.4c-.7 0-1.4-.2-2.1-.5-.7-.3-1.3-.8-2-1.4l1.9-1.9c.7.7 1.5 1.2 2.3 1.3.9.1 1.7-.2 2.4-1 .6-.6 1-1.4 1.1-2.2.1-.8-.2-1.5-.9-2.2-.5-.5-.9-.7-1.4-.8-.4-.1-.9-.1-1.3.1s-.9.4-1.2.7-.8.7-1.2 1.1l-1.3-1.4zM2070.7 1111.8l6.1-6.1 1.7 1.7-4.7 4.7 2.4 3.6h.1c0-.6.1-1.1.3-1.7.2-.6.6-1 1-1.4.6-.6 1.2-1 1.9-1.3.7-.3 1.3-.4 2-.3s1.3.2 2 .5 1.3.8 1.8 1.3.9 1 1.2 1.7c.3.7.6 1.4.6 2.1.1.7 0 1.5-.3 2.3-.3.8-.7 1.5-1.5 2.3-.6.6-1.2 1-1.8 1.4-.6.3-1.3.5-2 .6s-1.3 0-2-.2-1.3-.6-1.9-1.2l1.9-1.9c.7.6 1.4.9 2.1.8.7 0 1.4-.4 2-1 .4-.4.7-.8.8-1.2s.2-.8.1-1.2c-.1-.4-.2-.8-.5-1.2-.2-.4-.5-.8-.9-1.1-.3-.3-.7-.6-1.1-.8s-.8-.3-1.2-.4-.8 0-1.2.2c-.4.2-.8.4-1.2.8-.4.4-.7.9-.9 1.4s-.2 1 .1 1.6l-1.9 1.9-5-7.9z"/></g><g><path class="st8" d="M1849.3 1061.7h.9"/><path class="st9" d="M1859.6 1061.7h311.9"/><path class="st8" d="M2176.2 1061.7h1"/></g><g><path class="st8" d="M1849.3 1058.8h.9"/><path class="st9" d="M1859.7 1059l311.8 5.4"/><path class="st8" d="M2176.2 1064.5h.9"/></g><g><path class="st8" d="M1849.4 1056h.9"/><path class="st9" d="M1859.7 1056.3l311.7 10.9"/><path class="st8" d="M2176.1 1067.4h1"/></g><g><path class="st8" d="M1849.5 1053.1h.9"/><path class="st9" d="M1859.8 1053.6l311.5 16.4"/><path class="st8" d="M2176 1070.2l.9.1"/></g><g><path class="st8" d="M1849.7 1050.2l.9.1"/><path class="st9" d="M1860 1051l311.1 21.7"/><path class="st8" d="M2175.8 1073l1 .1"/></g><g><path class="st8" d="M1849.9 1047.4l.9.1"/><path class="st9" d="M1860.2 1048.3l310.7 27.2"/><path class="st8" d="M2175.6 1075.9l.9.1"/></g><g><path class="st8" d="M1850.2 1044.5l.9.1"/><path class="st9" d="M1860.5 1045.6l310.1 32.6"/><path class="st8" d="M2175.3 1078.7l1 .1"/></g><g><path class="st8" d="M1850.5 1041.7l.9.1"/><path class="st9" d="M1860.8 1043l309.5 38"/><path class="st8" d="M2175 1081.5l.9.2"/></g><g><path class="st8" d="M1850.5 1041.7l.9.1"/><path class="st9" d="M1860.8 1043l309.5 38"/><path class="st8" d="M2175 1081.5l.9.2"/></g><g><path class="st8" d="M1849.3 1064.5h.9"/><path class="st9" d="M1859.7 1064.4l311.8-5.5"/><path class="st8" d="M2176.2 1058.8h.9"/></g><g><path class="st8" d="M1849.4 1067.4h.9"/><path class="st9" d="M1859.7 1067l311.7-10.8"/><path class="st8" d="M2176.1 1056h1"/></g><g><path class="st8" d="M1849.5 1070.3l.9-.1"/><path class="st9" d="M1859.8 1069.7l311.5-16.3"/><path class="st8" d="M2176 1053.1h.9"/></g><g><path class="st8" d="M1849.7 1073.1l.9-.1"/><path class="st9" d="M1860 1072.4l311.1-21.8"/><path class="st8" d="M2175.8 1050.3l1-.1"/></g><g><path class="st8" d="M1849.9 1076l.9-.1"/><path class="st9" d="M1860.2 1075.1l310.7-27.2"/><path class="st8" d="M2175.6 1047.5l.9-.1"/></g><g><path class="st8" d="M1850.2 1078.8l.9-.1"/><path class="st9" d="M1860.5 1077.7l310.1-32.6"/><path class="st8" d="M2175.3 1044.6l1-.1"/></g><g><path class="st8" d="M1850.5 1081.7l.9-.2"/><path class="st9" d="M1860.8 1080.4l309.5-38"/><path class="st8" d="M2175 1041.8l.9-.1"/></g><g><path class="st8" d="M1850.9 1084.5l.9-.1"/><path class="st9" d="M1861.1 1083l308.9-43.4"/><path class="st8" d="M2174.6 1039l1-.1"/></g><g><path class="st8" d="M1851.3 1087.3l.9-.1"/><path class="st9" d="M1861.5 1085.7l308.1-48.8"/><path class="st8" d="M2174.2 1036.2l1-.2"/></g><g><path class="st8" d="M2013.2 897.7v1"/><path class="st9" d="M2013.2 908.1V1220"/><path class="st8" d="M2013.2 1224.7v.9"/></g><g><path class="st8" d="M2016.1 897.7v1"/><path class="st9" d="M2015.9 908.1l-5.5 311.8"/><path class="st8" d="M2010.4 1224.7v.9"/></g><g><path class="st8" d="M2018.9 897.8v1"/><path class="st9" d="M2018.6 908.2l-10.9 311.7"/><path class="st8" d="M2007.5 1224.6v.9"/></g><g><path class="st8" d="M2021.8 897.9l-.1 1"/><path class="st9" d="M2021.3 908.3l-16.4 311.4"/><path class="st8" d="M2004.7 1224.5l-.1.9"/></g><g><path class="st8" d="M2024.6 898.1v1"/><path class="st9" d="M2023.9 908.5l-21.7 311.1"/><path class="st8" d="M2001.8 1224.3v.9"/></g><g><path class="st8" d="M2027.5 898.3l-.1 1"/><path class="st9" d="M2026.6 908.7l-27.2 310.7"/><path class="st8" d="M1999 1224.1l-.1.9"/></g><g><path class="st8" d="M2030.4 898.6l-.1 1"/><path class="st9" d="M2029.3 908.9l-32.6 310.2"/><path class="st8" d="M1996.2 1223.8l-.1.9"/></g><g><path class="st8" d="M2033.2 898.9l-.1 1"/><path class="st9" d="M2031.9 909.2l-38 309.6"/><path class="st8" d="M1993.3 1223.5l-.1.9"/></g><g><path class="st8" d="M2033.2 898.9l-.1 1"/><path class="st9" d="M2031.9 909.2l-38 309.6"/><path class="st8" d="M1993.3 1223.5l-.1.9"/></g><g><path class="st8" d="M2010.4 897.7v1"/><path class="st9" d="M2010.5 908.1l5.5 311.8"/><path class="st8" d="M2016.1 1224.7v.9"/></g><g><path class="st8" d="M2007.5 897.8v1"/><path class="st9" d="M2007.9 908.2l10.8 311.7"/><path class="st8" d="M2018.9 1224.6v.9"/></g><g><path class="st8" d="M2004.6 897.9l.1 1"/><path class="st9" d="M2005.2 908.3l16.3 311.4"/><path class="st8" d="M2021.7 1224.5l.1.9"/></g><g><path class="st8" d="M2001.8 898.1v1"/><path class="st9" d="M2002.5 908.5l21.8 311.1"/><path class="st8" d="M2024.6 1224.3v.9"/></g><g><path class="st8" d="M1998.9 898.3l.1 1"/><path class="st9" d="M1999.8 908.7l27.2 310.7"/><path class="st8" d="M2027.4 1224.1l.1.9"/></g><g><path class="st8" d="M1996.1 898.6l.1 1"/><path class="st9" d="M1997.2 908.9l32.6 310.2"/><path class="st8" d="M2030.3 1223.8l.1.9"/></g><g><path class="st8" d="M1993.2 898.9l.1 1"/><path class="st9" d="M1994.5 909.2l38 309.6"/><path class="st8" d="M2033.1 1223.5l.1.9"/></g><g><path class="st8" d="M1990.4 899.3l.1 1"/><path class="st9" d="M1991.8 909.6l43.4 308.8"/><path class="st8" d="M2035.9 1223.1l.1.9"/></g><g><path class="st8" d="M1987.6 899.7l.1 1"/><path class="st9" d="M1989.2 910l48.8 308"/><path class="st8" d="M2038.7 1222.7l.2.9"/></g><circle class="st10" cx="2013.2" cy="1061.7" r="36"/><circle class="st10" cx="2013.2" cy="1061.7" r="24.1"/><g class="st6"><path class="st7" d="M2011.5 1071.1v-13h-5v-3.1c.7 0 1.4 0 2-.2s1.3-.3 1.8-.7c.5-.3 1-.7 1.3-1.2s.6-1.2.7-1.9h3.2v20.1h-4z"/></g><path class="st11" d="M1979 1127.8V1091.7c0-2.6.5-5.9 0-8.5-.4-2.1-1.9-2.5-3.6-3.4-1.6-.8-1.3-1.2-2.3-2.8-.6-1-1.6-1.5-1.2-2.6.3-.9 2.3-1.6 3-2.2.8-.8 1.4-1.9 1.7-2.9.6-2 .5-4.2.5-6.2 0-1.9-.2-4.2-.6-6.1-.5-2.1-2.3-3.7-2.6-5.7-.4-2.4-1.1-4.4-1.1-6.9 0-1.6.7-2.8.3-4.3-.1-.4-.6-1-.8-1.7-.2-1.2 0-2.6-.1-3.8-.1-1-.3-2-.3-2.9-.1-1 .2-2.1.1-3.1 0-.4-.5-.8-.5-1.1 0-1.6.4-3.4.2-5-.3-1.7-1.5-3.9-2.1-5.6-.2-.5-.5-1.2-.6-1.9-.1-.4.4-.7.4-1-.1-.4-.7-.6-.8-.9-.4-1.5-1.1-3-1.5-4.5-.6-2.6 0-5.4-.1-8 0-1.5-.7-2.7-.4-4.1.4-1.8.8-2.3.3-4.2-.5-2.2-1.2-4.4-1.8-6.6h33.9c.6 0 2.2.3 2.7 0 2-1.2.7-8 .7-10.1 1.6.5 3.8-.4 4.9 1.4.7 1.1.4 3.5.7 4.7.5 2.7.9 5.3 1.4 7.9.3 1.8 2 3.5 3.9 3.9 1.1.3 2.9-.7 3.8-.3.6.3.4.8.7 1 1.8 1 5.4 0 7 1.1.9.6.4 1.6 1 2.4.9 1.2 1.9.9 3.3.6.8-.1 1.9 0 2.7-.4.8-.5 1-1.3 1.5-1.7 3.7-2.6 10 .7 13.5 1.9-2.4.1-1.5 2.4.4 2.6 2.4.3 2-.6 2.7 1.8.4 1.5 1.3 4.3 3 3.9 2-.4.6-2.2 1.5-3 .3-.3 2.7-.4 3.1-.2.6.4.3 1.1.7 1.6 1.2 1.6 2.2 1.7 4 2.5 1.7.8 1 1.4 2.3 2.6.3.3 1 0 1.4.2.2.1-.2.7-.1.8.9.4 1.6.3 2.6.3s1.3.1 2.5-.2c1.4-.4 1.9-.7 3-1.6 1.3-1 3.7-3 5.4-3.1-.6 1.6 1.6 4 3.2 3.9.6 0 1.2-.5 1.8-.5.3 0 .4.5.8.5.9 0 1.8-.2 2.8-.3 1.3-.1 3.7-1 5-.5 1.2.4 1.3 1.8 2.1 2.6 2.1 1.8 3.5-.7 5.4.4-1.2 1.9-4.6 3-6.6 3.9s-4.1 1.4-6.1 2.1c-4.6 1.6-8.2 4.2-11.8 7.4-2.6 2.2-4.7 5.2-7 7.7-1.1 1.2-2.5 2.1-3.6 3.2-2.8 2.8-6.7 4.8-9.1 8-.6.8-1.4 1.8-1.8 2.3-.2.2-.7 0-1 .6-.4.7 0 3.1 0 3.9 0 3 .8 7.3 0 10.2-.2.6-.2.4-.6 1-.8.9-.6.2-1.4.7-2.4 1.6-5.2 2.8-6.7 5.8-.8 1.7-2.4 2.8-2.3 5 .1 1.7.3 1.6 1.6 2.3 1.5.9.6-.1 1.7 1.5 1.9 2.7-1.1 4.8-1 7.9 0 .5.4 1 .3 1.6 0 .3-.5.2-.5.4-.1.5-.2.9-.1 1.6.1 1.8.6 3.5.2 5.4-.4 1.6-1 1.2-.2 2.5.5.7 1.9 1.5 2.5 2.2 1.5 1.4 3 1 4.7 2 1.8 1.1 1.4 2.5 3.5 3.2 2.4.7 3.9 2 5.2 4.2 1.2 2 2.4 4.5 4.7 5.5 1.2.5 3.3.3 4.3 1.3.3.3.5 1.3.8 1.7.6.8 1 .4 1.3 1.3.2.5.5 2.4.6 3 .2 1.3.4 5.4-.5 5.9-.7.4-3 0-3.8 0h-86.6c-.8.1-1.5.1-2.1.1z"/><g><path class="st12" d="M2013.7 1046.2l-3.3-3.4m-32.8-32.7l3.4 3.3m65.5 65.6l-3.3-3.4m-10.7-10.7l-3.4-3.3m-10.7-10.7l-3.3-3.4m-29.4-29.4l-3.4-3.4m8 8.1l-3.3-3.4m46.8 46.8l3.4 3.4m-9.4-9.4l-3.4-3.3m-24.7-24.8l-3.3-3.3m-20.1-20.1l-3.3-3.3m65.5 65.5l3.3 3.4m-46.8-46.8l-3.3-3.4m31.4 31.4l-3.3-3.3m-48.2-48.2l-3.3-3.3m40.8 40.8l-3.4-3.3m-1.3-1.4l-3.4-3.3"/><path class="st0" d="M2053.7 1062.9c.5-.5.5-.4.6-1v-.2l-1.7 1.7c.5-.1.5.2 1.1-.5zm-8.1 29c-.1-.7-.2-1.4-.3-2.2v-.2l-38.3 38.3h2.7l35.9-35.9zm43.2-73.2c1-.3 1.9-.6 2.9-.9l5-5c-.2-.1-.5-.3-.7-.5-.3-.2-.5-.5-.6-.9l-7.7 7.7c.3-.2.7-.3 1.1-.4zm-85-34.8l5.1-5.1c-.1-.6-.2-1.2-.5-1.7-.1-.1-.2-.2-.2-.3l-4.3 4.3c.1 1 0 2-.1 2.8zm-3.5 143.9l46.8-46.8c.2-.8.2-1.6-.2-2.4l-.4.4-48.9 48.9c1-.1 1.8-.1 2.7-.1zm-29.2-142l-3.8 3.8.6 2.1 5.9-5.9h-2.7zm76.4 113.6l-1.5-1.2-29.6 29.6h2.7l28.4-28.4zm-4.1-25c0-.9.2-1.6.5-2.2l-2.1 2.1-53.5 53.5h2.7l52.2-52.2.3-.3c0-.3-.1-.5-.1-.9zm29.6 53l-.5.5c.1 0 .2 0 .2-.1.1-.1.2-.2.3-.4zm-19.4-24.8c-.2-.3-.6-.6-1-.8l-.6-.3-26.3 26.3h2.7l25.2-25.2zm19.4 18.1c-.1-.7-.3-1.5-.4-1.8-.1-.1-.1-.2-.2-.3l-9.2 9.2h2.7l7.1-7.1zm-18.6-68.3l-17.2 17.2-56.9 56.9v1.3h1.4l56.9-56.9 16-16c-.1-.9-.2-1.7-.2-2.5zm4.7 54.1c-.5-.4-1.1-.7-1.7-1l-22.4 22.4h2.7l21.4-21.4zm4 5.4c-.4-.5-.7-1.1-1-1.6l-17.5 17.5h2.7l15.8-15.9zm6 3.4c-.7-.2-1.6-.3-2.3-.4l-13 13h2.7l12.6-12.6zm-88.6-129.5l-12.7 12.7c.1.7.4 1.5.4 2.3l.1-.1 14.9-14.9h-2.7zm38.4 8.6l-28.5 28.4-16.5 16.5c.2.4.4.7.5.9.1.4.1.8.1 1.2l17.3-17.3 29.2-29.2c-.9-.1-1.6-.2-2.1-.5zm-7.2-2.3l-26 26-12.5 12.5c0 .4-.1.8 0 1.2 0 .5.1.9.1 1.4l13.7-13.7 26.2-26.2c-.6-.4-1.1-.8-1.5-1.2zm15.3 5.8c-.4-.6-.3-1.2-.6-1.8l-31.4 31.4-20.6 20.6c.1.7.3 1.5.5 2.2l21.5-21.5 30.8-30.8c-.1 0-.2-.1-.2-.1zm-26.9-12.1h-.9l-22.9 22.9-6.1 6.1c-.1.1-.1.2-.1.4.1.6.4 1.3.6 1.8l6.9-6.9 24.1-24.1c-.5-.1-1.2-.2-1.6-.2zm-10.2 0l-18.2 18.2-3.5 3.5c0 .4.1.8.2 1.1.1.4.2.7.3 1.1l4.4-4.4 19.6-19.6c-1.1.1-1.9.1-2.8.1zm46.3 9.8l-36.5 36.5-22.9 22.9c.3.6.6 1.2.8 1.9l23.4-23.4 38-38c-.9-.1-1.9-.1-2.8.1zm-26.5-10.9l-28.7 28.7-8.3 8.3c.1.3.2.6.2.9.1.5.1 1 .1 1.5l9.4-9.4 27.7-27.7c-.2-.7-.3-1.5-.4-2.3zm48.9 18.7c-.3-.2-1.2-.2-2-.1l-1.4 1.4c0 .8.1 1.6-1.1 1.9-.3.1-.5 0-.7 0l-39.6 39.6-34.9 34.9c.5.4.9.8 1.2 1.5l35-35 43.8-43.8c-.1-.2-.1-.3-.3-.4zm10.8 8c-.8 0-1.4.1-2-.1l-44.3 44.3-42.9 42.9v2.7l44.2-44.2 45.5-45.5c-.1-.1-.3-.1-.5-.1zm10.9-3.7l-52.5 52.5-47.5 47.5v2.7l48.9-48.9 52.2-52.2c-.5-.4-.9-1-1.1-1.6zm-17-.2c-.4-.2-.7-.3-1.1-.5l-43.8 43.8-38.1 38.1c-.1 1-.1 1.9-.1 2.8l39.5-39.5 44.2-44.2c-.1-.2-.3-.3-.6-.5zm-13.7-6.5l-40.5 40.5-35.1 35.1c.1.1.2.3.3.5.3.5.5.9.7 1.2l35.4-35.4 40.6-40.6c-.4-1.5-.4-1.3-1.4-1.3zm-5.3-4.1l-40 40-26.1 26.1v2.7l27.4-27.4 40.6-40.6c-.5-.3-1.2-.6-1.9-.8zm44.6 13.3c-.7.1-1.3.2-1.9.2l-54.5 54.5-52.2 52.2v2.7l53.6-53.6 56.3-56.3c-.6.2-1 .3-1.3.3z"/></g><path class="st13" d="M1995.2 1099.4c-4.2.7-4.3 2.1-.5 5.5 11.7 10.4 24.5 11 38.3.5 3.6-2.7 3.7-5.3-.7-6l-18.6.5-18.5-.5z"/><ellipse class="st13" cx="1994.9" cy="1078.1" rx="12.9" ry="16.3"/><path class="st14" d="M1994.9 1068.2c3.5 0 6.4 4.4 6.4 9.9s-2.9 9.9-6.4 9.9-6.4-4.4-6.4-9.9c.1-5.5 2.9-9.9 6.4-9.9z"/><ellipse class="st13" cx="2030.9" cy="1078.1" rx="12.9" ry="16.3"/><path class="st14" d="M2030.9 1068.2c3.5 0 6.4 4.4 6.4 9.9s-2.9 9.9-6.4 9.9-6.4-4.4-6.4-9.9 2.9-9.9 6.4-9.9z"/><g><path class="st0" d="M1109.7 1231.8c-80.9 0-159.4-15.8-233.3-47.1-71.4-30.2-135.5-73.4-190.5-128.4s-98.2-119.1-128.4-190.5c-31.3-73.9-47.1-152.4-47.1-233.3s15.8-159.4 47.1-233.3c30.2-71.4 73.4-135.5 128.4-190.5S805 110.5 876.4 80.3c73.9-31.3 152.4-47.1 233.3-47.1S1269.1 49 1343 80.3c71.4 30.2 135.5 73.4 190.5 128.4s98.2 119.1 128.4 190.5c31.3 73.9 47.1 152.4 47.1 233.3s-15.8 159.4-47.1 233.3c-30.2 71.4-73.4 135.5-128.4 190.5s-119.1 98.2-190.5 128.4c-73.9 31.3-152.4 47.1-233.3 47.1zm0-1169c-76.9 0-151.5 15.1-221.8 44.8-67.8 28.7-128.8 69.8-181.1 122.1C654.5 282 613.4 343 584.7 410.8 555 481 540 555.6 540 632.5s15.1 151.5 44.8 221.8c28.7 67.8 69.8 128.8 122.1 181.1s113.3 93.4 181.1 122.1c70.2 29.7 144.8 44.8 221.8 44.8 76.9 0 151.5-15.1 221.8-44.8 67.8-28.7 128.8-69.8 181.1-122.1 52.3-52.3 93.4-113.3 122.1-181.1 29.7-70.2 44.8-144.8 44.8-221.8s-15.1-151.5-44.8-221.8c-28.7-67.8-69.8-128.8-122.1-181.1-52.3-52.3-113.3-93.4-181.1-122.1-70.4-29.6-145-44.7-221.9-44.7z"/><path class="st1" d="M1109.7 38c80.3 0 158.1 15.7 231.4 46.7 70.8 29.9 134.4 72.8 189 127.4s97.5 118.2 127.4 189c31 73.3 46.7 151.2 46.7 231.4s-15.7 158.1-46.7 231.4c-29.9 70.8-72.8 134.4-127.4 189s-118.2 97.5-189 127.4c-73.3 31-151.2 46.7-231.4 46.7-80.3 0-158.1-15.7-231.4-46.7-70.8-29.9-134.4-72.8-189-127.4s-97.5-118.2-127.4-189c-31-73.3-46.7-151.2-46.7-231.4s15.7-158.1 46.7-231.4c29.9-70.8 72.8-134.4 127.4-189 54.6-54.6 118.2-97.5 189-127.4 73.3-31 151.1-46.7 231.4-46.7m0 1169c77.6 0 152.8-15.2 223.6-45.1 68.4-28.9 129.8-70.4 182.6-123.1 52.8-52.8 94.2-114.2 123.1-182.6 30-70.8 45.1-146.1 45.1-223.6S1669 479.7 1639 408.9c-28.9-68.4-70.4-129.8-123.1-182.6-52.8-52.8-114.2-94.2-182.6-123.1-70.8-30-146.1-45.1-223.6-45.1-77.6 0-152.8 15.2-223.6 45.1-68.4 28.9-129.8 70.4-182.6 123.1-52.8 52.8-94.2 114.2-123.1 182.6-30 70.8-45.1 146.1-45.1 223.6s15.2 152.8 45.1 223.6c28.9 68.4 70.4 129.8 123.1 182.6 52.8 52.8 114.2 94.2 182.6 123.1 70.8 30 146 45.2 223.6 45.2m0-1178.6c-81.5 0-160.7 16-235.1 47.5-71.9 30.4-136.5 74-192 129.5s-99 120.1-129.5 192c-31.5 74.5-47.5 153.6-47.5 235.1s16 160.7 47.5 235.1c30.4 71.9 74 136.5 129.5 192s120.1 99 192 129.5c74.5 31.5 153.6 47.5 235.1 47.5s160.7-16 235.1-47.5c71.9-30.4 136.5-74 192-129.5s99-120.1 129.5-192c31.5-74.5 47.5-153.6 47.5-235.1s-16-160.7-47.5-235.1c-30.4-71.9-74-136.5-129.5-192s-120.1-99-192-129.5c-74.5-31.5-153.6-47.5-235.1-47.5zm0 1169.1c-76.3 0-150.3-14.9-219.9-44.4-67.3-28.5-127.7-69.2-179.6-121.1-51.9-51.9-92.6-112.3-121.1-179.6-29.5-69.6-44.4-143.6-44.4-219.9s14.9-150.3 44.4-219.9c28.5-67.3 69.2-127.7 121.1-179.6 51.9-51.9 112.3-92.6 179.6-121.1 69.6-29.5 143.6-44.4 219.9-44.4s150.3 14.9 219.9 44.4c67.3 28.5 127.7 69.2 179.6 121.1s92.6 112.3 121.1 179.6c29.5 69.6 44.4 143.6 44.4 219.9s-14.9 150.3-44.4 219.9c-28.5 67.3-69.2 127.7-121.1 179.6-51.9 51.9-112.3 92.6-179.6 121.1-69.7 29.4-143.6 44.4-219.9 44.4z"/></g><g><path class="st7" d="M947.8 504.8c-1.9-1.9-3.1-4.1-3.7-6.5-.5-2.3-.5-4.7 0-7.3.2-1.1.4-2.3.7-3.5.2-1.1.4-2.1.5-3.1.1-.9 0-1.8-.2-2.6-.1-.7-.5-1.2-1-1.8-.2-.2-.6-.5-1-.8-.3-.2-.6-.3-.9-.4h-.3c-.2 0-.5 0-.8.1s-.7.3-1.3.9c-.4.4-.7.8-.7 1.1-.1.4-.1.8 0 1.2.1.5.4 1.1.8 1.6.4.6 1 1.3 1.6 2l1.3 1.3-6 6-1.4-1.3c-1.3-1.2-2.3-2.6-3-4-.8-1.5-1.2-3-1.3-4.6s.1-3.1.7-4.6c.6-1.5 1.5-2.9 2.8-4.3 1.4-1.4 2.9-2.4 4.4-2.9 1.2-.4 2.4-.6 3.5-.6h.9c1.4.1 2.7.5 3.8 1.2 1.1.6 2 1.3 2.8 2.1 1 1 1.7 2 2.2 3.1s.8 2.2.9 3.4c.1 1.1.2 2.2.1 3.4-.1 1.1-.2 2.1-.4 3.2l-.6 3c-.2.9-.3 1.7-.5 2.5l8.3-8.3 5.7 5.7-16.5 16.5-1.4-1.7z"/><path class="st1" d="M942.5 472.4h.7c1.1.1 2.2.4 3.1.9.9.5 1.7 1.1 2.4 1.8.8.8 1.4 1.7 1.8 2.6.4.9.7 1.8.8 2.8s.2 2 .1 3-.2 2-.4 3-.4 1.9-.6 2.9c-.2.9-.4 1.8-.5 2.7-.1.9-.2 1.7-.1 2.4 0 .8.2 1.4.5 2l9.9-9.9 3 3-13.8 13.8c-1.7-1.7-2.7-3.6-3.2-5.6s-.5-4.2 0-6.5c.2-1.1.4-2.3.7-3.5s.4-2.3.5-3.4 0-2.2-.2-3.2-.7-1.9-1.5-2.7c-.4-.4-.8-.7-1.3-1s-1.1-.5-1.7-.7c-.2 0-.4-.1-.6-.1-.4 0-.8.1-1.3.2-.7.2-1.4.7-2.1 1.4-.7.7-1.1 1.3-1.2 2-.2.7-.2 1.4 0 2.1s.5 1.4 1 2.2c.5.7 1.1 1.5 1.8 2.2l-3.3 3.3c-1.1-1.1-2-2.3-2.7-3.6-.7-1.3-1-2.5-1.1-3.8s.1-2.6.5-3.8c.5-1.3 1.3-2.4 2.4-3.6 1.2-1.2 2.5-2.1 3.7-2.5.8-.2 1.7-.4 2.7-.4m0-3.8c-1.3 0-2.7.2-4.1.7-1.8.6-3.5 1.8-5.2 3.4-1.5 1.5-2.6 3.2-3.3 5s-.9 3.6-.8 5.4c.1 1.8.7 3.6 1.6 5.3.8 1.6 2 3.1 3.3 4.5l2.7 2.7 2.7-2.7 2.9-2.9c0 .2-.1.4-.1.6-.5 2.8-.5 5.5.1 8 .6 2.7 2 5.2 4.2 7.4l2.7 2.8 2.7-2.7 13.8-13.8 2.7-2.7-2.7-2.7-3-3-2.7-2.7-2.7 2.7-2.6 2.6.3-2.7c.1-1.3.1-2.5-.1-3.7-.2-1.3-.5-2.6-1.1-3.9s-1.5-2.6-2.6-3.7c-.9-.9-2-1.7-3.3-2.4-1.4-.8-2.9-1.2-4.6-1.4-.1-.1-.5-.1-.8-.1zm-.8 12h.2c.1 0 .2.1.2.1.3.2.5.3.7.5.4.4.5.7.5.9.1.6.2 1.3.1 2.1 0 .2 0 .4-.1.6l-.5-.5c-.5-.6-1-1.1-1.4-1.7-.3-.4-.4-.8-.5-1.1v-.1s.1-.1.2-.3c.3-.3.5-.4.6-.5z"/></g><g><path class="st7" d="M966.5 485.4c-1.3 0-2.5-.2-3.8-.6-1.7-.6-3.4-1.5-5-2.6-1.5-1.1-2.9-2.3-4.1-3.5-1.2-1.2-2.4-2.6-3.5-4.1-1.2-1.6-2-3.2-2.6-5s-.8-3.7-.5-5.6c.3-2 1.3-3.9 3.1-5.6 1.7-1.7 3.6-2.8 5.6-3.1.6-.1 1.2-.1 1.8-.1 1.3 0 2.5.2 3.8.6 1.7.6 3.4 1.5 5 2.6 1.5 1.1 2.9 2.3 4.1 3.5 1.2 1.2 2.4 2.6 3.5 4.1 1.2 1.6 2.1 3.2 2.6 5 .6 1.8.8 3.7.5 5.6-.3 2-1.4 3.9-3.1 5.6-1.7 1.7-3.6 2.8-5.6 3.1-.5.1-1.2.1-1.8.1zm-9.6-22.2c-.3 0-.7.1-1.2.6s-.6.9-.6 1.2c0 .6.1 1.2.4 1.9.4.8.9 1.7 1.6 2.7.8 1 1.7 2 2.7 3s2 1.9 3 2.7c.9.7 1.8 1.3 2.6 1.6.6.3 1.2.4 1.7.4h.2c.3 0 .7-.1 1.2-.6s.6-.9.6-1.2c0-.6-.1-1.2-.4-1.9-.4-.8-.9-1.7-1.6-2.6-.8-1-1.7-2-2.7-3s-2-1.9-3-2.7c-.9-.7-1.8-1.3-2.7-1.6-.6-.3-1.2-.4-1.7-.4 0-.1-.1-.1-.1-.1z"/><path class="st1" d="M957.6 457.1c1.1 0 2.1.2 3.2.5 1.5.5 3 1.3 4.4 2.4s2.7 2.2 3.9 3.3 2.3 2.4 3.3 3.9c1.1 1.4 1.8 2.9 2.4 4.4.5 1.5.7 3.1.4 4.7s-1.1 3.1-2.5 4.5-3 2.3-4.5 2.5c-.5.1-1 .1-1.5.1-1.1 0-2.1-.2-3.2-.5-1.5-.5-3-1.3-4.4-2.4s-2.7-2.2-3.9-3.3c-1.2-1.2-2.3-2.4-3.3-3.9-1.1-1.4-1.8-2.9-2.4-4.4-.5-1.5-.7-3.1-.4-4.7.2-1.6 1.1-3.1 2.5-4.5s3-2.3 4.5-2.5c.5-.1 1-.1 1.5-.1m9.5 22.2h.3c.9-.1 1.7-.5 2.4-1.2s1.1-1.5 1.2-2.4c.1-.9-.1-1.8-.5-2.8s-1.1-2-1.9-3.1c-.8-1.1-1.8-2.1-2.8-3.2-1.1-1.1-2.1-2-3.2-2.8-1.1-.8-2.1-1.4-3.1-1.9-.9-.4-1.7-.6-2.5-.6h-.4c-.9.1-1.7.5-2.4 1.2s-1.1 1.5-1.2 2.4c-.1.9.1 1.8.6 2.8.4 1 1.1 2 1.9 3.1.8 1.1 1.8 2.1 2.8 3.2 1.1 1.1 2.1 2 3.2 2.8 1.1.8 2.1 1.5 3.1 1.9.9.4 1.7.6 2.5.6m-9.5-26c-.7 0-1.4.1-2.1.2-2.4.4-4.6 1.6-6.6 3.6s-3.2 4.3-3.6 6.6c-.3 2.2-.2 4.4.6 6.5.6 1.9 1.6 3.8 2.9 5.5 1.2 1.6 2.4 3 3.7 4.3s2.7 2.5 4.3 3.7c1.7 1.3 3.6 2.3 5.5 2.9 1.4.5 2.9.7 4.4.7.7 0 1.4-.1 2.1-.2 2.4-.4 4.6-1.6 6.6-3.6s3.2-4.3 3.6-6.6c.3-2.2.2-4.4-.6-6.5-.6-1.9-1.6-3.8-2.9-5.5-1.2-1.6-2.4-3-3.7-4.3s-2.7-2.5-4.3-3.7c-1.7-1.3-3.6-2.3-5.5-2.9-1.4-.5-2.9-.7-4.4-.7zm-.5 11.8c.3 0 .6.1.9.2.7.3 1.5.8 2.2 1.4.9.7 1.9 1.6 2.8 2.5.9.9 1.8 1.9 2.5 2.8.6.8 1.1 1.5 1.4 2.2.1.3.2.6.2.9l-.1.1-.1.1c-.3 0-.6-.1-.9-.2-.7-.3-1.4-.8-2.2-1.4-.9-.7-1.9-1.6-2.8-2.5-.9-.9-1.8-1.9-2.5-2.8-.6-.8-1.1-1.6-1.4-2.2-.2-.4-.2-.7-.3-.9.1 0 .2-.1.3-.2-.1.1 0 .1 0 0z"/></g><g><path class="st7" d="M1245.2 798.6l-3.8-22.4 5.2-5.2 12.8 12.8 2.6-2.6 5.3 5.3-2.6 2.6 4.8 4.8-5.8 5.8-4.8-4.8-8.7 8.7-5-5zm6.2-6.7l2.2-2.2-3.3-3.3 1.1 5.5z"/><path class="st1" d="M1246.6 773.7l12.8 12.8 2.6-2.6 2.6 2.6-2.6 2.6 4.8 4.8-3.1 3.1-4.8-4.8-8.7 8.7-3.3-3.3-3.5-20.9 3.2-3m3.6 22.1l6.1-6.1-8.9-8.9-.1.1 2.9 14.9m-3.6-27.5l-2.7 2.7-3.1 3.1-1.4 1.4.3 1.9 3.5 20.9.2 1.2.9.9 3.3 3.3 2.7 2.7 2.7-2.7 6-6 2.1 2.1 2.7 2.7 2.7-2.7 3.1-3.1 2.7-2.7-2.7-2.7-2.1-2.1 2.6-2.6-2.7-2.7-2.6-2.6-2.7-2.7-2.6 2.6-10.1-10.1-2.8-2.8z"/></g><g><path class="st7" d="M1271.7 788.4c-1.3 0-2.5-.2-3.8-.6-1.7-.6-3.4-1.5-5-2.6-1.5-1.1-2.9-2.3-4.1-3.5s-2.4-2.6-3.5-4.1c-1.2-1.6-2.1-3.2-2.6-5-.6-1.8-.8-3.7-.5-5.6.3-2 1.4-3.9 3.1-5.6 1.7-1.7 3.6-2.8 5.6-3.1.6-.1 1.2-.1 1.8-.1 1.3 0 2.5.2 3.8.6 1.7.6 3.4 1.5 5 2.6 1.5 1.1 2.9 2.3 4.1 3.5s2.4 2.6 3.5 4.1c1.2 1.6 2.1 3.2 2.6 5 .6 1.8.8 3.7.5 5.6-.3 2-1.4 3.9-3.1 5.6-1.7 1.7-3.6 2.8-5.6 3.1-.6.1-1.2.1-1.8.1zm-9.7-22.1c-.3 0-.7.1-1.2.6s-.6.9-.6 1.2c0 .6.1 1.2.4 1.9.4.8.9 1.7 1.6 2.7.8 1 1.7 2 2.7 3s2 1.9 3 2.7c.9.7 1.8 1.3 2.6 1.6.6.3 1.2.4 1.7.4h.2c.3 0 .7-.1 1.2-.6s.6-.9.6-1.2c0-.6-.1-1.2-.4-1.9-.4-.8-.9-1.7-1.6-2.6-.8-1-1.7-2-2.7-3s-2-1.9-3-2.7c-.9-.7-1.8-1.3-2.7-1.6-.6-.3-1.2-.4-1.7-.4 0-.1 0-.1-.1-.1z"/><path class="st1" d="M1262.8 760.1c1.1 0 2.1.2 3.2.5 1.5.5 3 1.3 4.4 2.4 1.4 1.1 2.7 2.2 3.9 3.3 1.2 1.2 2.3 2.4 3.3 3.9 1.1 1.4 1.8 2.9 2.4 4.4.5 1.5.7 3.1.4 4.7-.2 1.6-1.1 3.1-2.5 4.5s-3 2.3-4.5 2.5c-.5.1-1 .1-1.5.1-1.1 0-2.1-.2-3.1-.5-1.5-.5-3-1.3-4.4-2.4-1.4-1.1-2.7-2.2-3.9-3.3s-2.3-2.4-3.3-3.9c-1.1-1.4-1.8-2.9-2.4-4.4-.5-1.5-.7-3.1-.4-4.7.2-1.6 1.1-3.1 2.5-4.5s3-2.3 4.5-2.5c.4 0 .9-.1 1.4-.1m9.5 22.2h.3c.9-.1 1.7-.5 2.4-1.2s1.1-1.5 1.2-2.4-.1-1.8-.5-2.8-1.1-2-1.9-3.1-1.8-2.1-2.8-3.2c-1.1-1.1-2.1-2-3.2-2.8s-2.1-1.4-3.1-1.9c-.9-.4-1.7-.6-2.5-.6h-.4c-.9.1-1.7.5-2.4 1.2s-1.1 1.5-1.2 2.4.1 1.8.6 2.8c.4 1 1.1 2 1.9 3.1s1.8 2.1 2.8 3.2c1.1 1.1 2.1 2 3.2 2.8s2.1 1.5 3.1 1.9c.8.4 1.7.6 2.5.6m-9.5-26c-.7 0-1.4.1-2.1.2-2.4.4-4.6 1.6-6.6 3.6s-3.2 4.3-3.6 6.6c-.3 2.2-.2 4.4.6 6.5.6 1.9 1.6 3.8 2.9 5.5 1.2 1.6 2.4 3 3.7 4.3 1.3 1.3 2.7 2.5 4.3 3.7 1.7 1.3 3.6 2.3 5.5 2.9 1.4.5 2.9.7 4.4.7.7 0 1.4-.1 2.1-.2 2.4-.4 4.6-1.6 6.6-3.6s3.2-4.3 3.6-6.6c.3-2.2.2-4.4-.6-6.5-.6-1.9-1.6-3.8-2.9-5.5-1.2-1.6-2.4-3-3.7-4.3-1.3-1.3-2.7-2.5-4.3-3.7-1.7-1.3-3.6-2.3-5.5-2.9-1.5-.5-3-.7-4.4-.7zm-.6 11.9c.3 0 .6.1 1 .2.7.3 1.5.8 2.2 1.4.9.7 1.9 1.6 2.8 2.5s1.8 1.9 2.5 2.8c.6.8 1.1 1.5 1.4 2.2.2.4.2.7.2.9l-.1.1-.1.1c-.3 0-.6-.1-.9-.2-.7-.3-1.4-.8-2.2-1.4-.9-.7-1.9-1.6-2.8-2.5s-1.8-1.9-2.5-2.8c-.6-.8-1.1-1.6-1.4-2.2-.2-.4-.2-.7-.3-.9l.2-.2z"/></g><g><path class="st7" d="M992.8 532.6l-5 5-5.3-5.3 1.4-1.4c.6-.6 1.2-1.3 1.6-1.9.4-.6.7-1.2.9-1.9.2-.6.3-1.1.2-1.7 0-.5-.2-.9-.5-1.3l-.9-1.3 5.2-5.2 23 23-6.3 6.3-14.3-14.3z"/><path class="st1" d="M990.5 520.3l20.3 20.3-3.6 3.6-14.3-14.3-5 5-2.6-2.6c.7-.7 1.3-1.4 1.9-2.2.5-.8.9-1.6 1.2-2.4.3-.8.4-1.6.3-2.4 0-.8-.3-1.6-.8-2.3l2.6-2.7m0-5.4l-2.7 2.7-2.7 2.7-2.2 2.2 1.8 2.6c.2.2.2.3.2.4 0 .3 0 .6-.1 1s-.4.9-.7 1.3c-.4.6-.9 1.2-1.4 1.7l-2.7 2.7 2.7 2.7 2.6 2.6 2.7 2.7 2.7-2.7 2.3-2.3 11.6 11.6 2.7 2.7 2.7-2.7 3.6-3.6 2.7-2.7-2.7-2.7-20.3-20.3-2.8-2.6z"/></g><g><path class="st7" d="M1015 535.2c-1.1 0-2.2-.2-3.3-.5-1.4-.5-2.7-1.3-4-2.5l-1.5-1.3 5.9-5.9 1.3 1.1c.8.6 1.5 1 2.2 1h.1c.8 0 1.5-.4 2.2-1.2.5-.5.8-1 1-1.4.1-.4.2-.8.1-1.2-.1-.4-.2-.9-.5-1.3-.3-.5-.8-1.1-1.3-1.6-.4-.4-.9-.8-1.4-1s-.9-.4-1.4-.4h-.3c-.3 0-.7.1-1 .2-.5.2-.9.5-1.4.9-.5.5-.9 1.1-1.1 1.7-.1.3-.2.6.1 1.3l.5 1.2-5.9 5.9-11.1-16.5 12.9-12.9 5.7 5.7-8.3 8.3 1 1.5c.5-.8 1-1.5 1.6-2.2 1.2-1.2 2.5-2.1 3.8-2.6 1.2-.5 2.4-.7 3.7-.7h.6c1.4.1 2.8.5 4.1 1.1 1.3.6 2.5 1.5 3.6 2.6.9.9 1.8 2.1 2.4 3.3.7 1.3 1.2 2.8 1.3 4.3.2 1.5 0 3.1-.5 4.7s-1.5 3.2-3 4.6c-1.1 1.1-2.3 2-3.6 2.7s-2.7 1.1-4.1 1.3c.3-.3 0-.2-.4-.2z"/><path class="st1" d="M1007.6 503.2l3 3-8 8 4.1 6.2h.1c-.1-.9.1-1.9.5-2.8.4-.9 1-1.8 1.6-2.4 1-1 2.1-1.7 3.2-2.2 1-.4 2-.6 3-.6h.4c1.1.1 2.3.4 3.4.9 1.1.6 2.1 1.3 3.1 2.3.8.8 1.5 1.8 2.1 2.9.6 1.1 1 2.3 1.1 3.6s0 2.6-.4 3.9c-.4 1.3-1.3 2.6-2.5 3.9-1 1-2 1.8-3.1 2.3-1.1.6-2.2.9-3.4 1h-.8c-.9 0-1.8-.1-2.6-.4-1.1-.4-2.2-1.1-3.3-2.1l3.3-3.3c1.1.9 2.3 1.4 3.4 1.4h.2c1.2-.1 2.4-.6 3.5-1.7.7-.7 1.2-1.4 1.4-2.1.3-.7.3-1.4.2-2.1-.1-.7-.4-1.4-.8-2.1-.4-.7-.9-1.3-1.5-1.9-.6-.6-1.2-1-1.8-1.4-.7-.4-1.3-.6-2-.7h-.5c-.5 0-1.1.1-1.6.3-.7.3-1.4.7-2.1 1.4-.7.7-1.2 1.5-1.6 2.3-.3.9-.3 1.8.1 2.8l-3.3 3.3-8.9-13.3 10.5-10.4m0-5.4l-2.7 2.7-10.5 10.5-2.2 2.2 1.8 2.6 8.9 13.3 1 1.5-.3.3 1.3 1.2.6.9.2-.2.8.8c1.5 1.3 3 2.3 4.7 2.9 1.3.4 2.6.6 3.9.6.4 0 .8 0 1.2-.1 1.6-.2 3.3-.7 4.8-1.5 1.4-.8 2.8-1.8 4-3 1.7-1.7 2.8-3.5 3.4-5.4s.8-3.7.6-5.5c-.2-1.8-.7-3.4-1.5-5-.8-1.4-1.7-2.7-2.8-3.8-1.2-1.3-2.6-2.3-4.1-3-1.6-.8-3.2-1.2-4.9-1.3h-.7c-.5 0-1.1 0-1.6.1l2.5-2.5-2.7-2.7-3-3-2.7-2.6zm5.2 24.3l.6-.9c.3-.3.6-.4.7-.5.1-.1.3-.1.4-.1h.1c.2 0 .4.1.7.2.3.2.6.4.9.7.4.4.7.8 1 1.2.1.2.2.4.2.6v.3s-.1.3-.5.7c-.3.3-.7.6-1 .6s-.6-.2-1-.5l-1.5-1.2-.6-1.1z"/></g><g><path class="st7" d="M1209.2 755.9c-1.5 0-2.9-.4-4.3-1.1-1.4-.6-2.7-1.6-3.9-2.8l-1.4-1.4 6.1-6.1 1.3 1.4c.9.9 1.8 1.5 2.8 1.6h.3c.8 0 1.5-.4 2.3-1.2s1.2-1.6 1.3-2.5c0-.5 0-1.3-1-2.3-.5-.5-1-.8-1.4-.9h-.5c-.3 0-.5 0-.8.1-.5.2-1 .5-1.6.9-.6.5-1.2 1.1-1.8 1.7l-1.3 1.4-4.4-4.4-5.4 5.4-1.3-1.5c-1.1-1.2-1.9-2.5-2.5-3.8-.6-1.4-.9-2.8-1-4.2-.1-1.5.2-2.9.8-4.3.6-1.4 1.5-2.7 2.7-3.9.9-.9 2-1.7 3.1-2.3 1.2-.6 2.4-1 3.7-1.2.5-.1.9-.1 1.4-.1.9 0 1.8.1 2.6.4 1.4.4 2.6 1.2 3.7 2.3 1.3 1.3 2.1 2.7 2.5 4.3.1.5.2.9.2 1.4.3 0 .6-.1.9-.1.5 0 .9 0 1.4.1 2 .3 3.7 1.3 5.3 2.9 1.2 1.2 2 2.5 2.5 3.9s.6 2.8.5 4.3c-.1 1.4-.6 2.8-1.2 4.2-.7 1.3-1.6 2.6-2.7 3.7-1.3 1.3-2.7 2.3-4.2 3-1.4.6-2.8.9-4.2.9l-.5.2zm-7.9-23c-.6 0-1.2.3-1.8.9-.3.3-.6.7-.7 1-.1.4-.1.7-.1 1.1.1.5.2.9.5 1.3.3.5.6.9 1 1.2l.6.6.7-.7c.5-.4.9-.9 1.2-1.4.3-.5.5-.9.7-1.4.1-.4.1-.7 0-1.1-.1-.3-.3-.7-.7-1-.6-.6-1.1-.6-1.4-.6v.1z"/><path class="st1" d="M1202.2 726.5c.7 0 1.4.1 2.1.3 1.1.3 2 .9 2.9 1.8 1 1 1.7 2.1 2 3.4.3 1.2.1 2.5-.5 3.8l.1.1c1.1-.7 2.2-1.1 3.4-1.1.3 0 .7 0 1 .1 1.6.3 3 1.1 4.3 2.4 1 1 1.6 2 2 3.2.4 1.1.5 2.3.4 3.5s-.5 2.4-1.1 3.5c-.6 1.2-1.4 2.2-2.3 3.2-1.2 1.2-2.4 2-3.6 2.6-1.2.5-2.3.8-3.4.8h-.2c-1.2 0-2.4-.3-3.6-.9-1.2-.6-2.3-1.4-3.4-2.4l3.3-3.3c1.2 1.3 2.5 2 4 2.2h.5c1.3 0 2.5-.6 3.6-1.7s1.7-2.3 1.8-3.7c.1-1.4-.4-2.6-1.6-3.8-.8-.8-1.6-1.3-2.3-1.4-.3-.1-.6-.1-.9-.1-.5 0-1 .1-1.4.2-.7.3-1.5.7-2.1 1.2-.7.6-1.3 1.2-2 1.9l-2.5-2.5c.6-.5 1.1-1.1 1.5-1.7.4-.6.8-1.3.9-2 .2-.7.2-1.3 0-2s-.6-1.3-1.2-2c-.8-.8-1.7-1.2-2.7-1.2h-.2c-1.1.1-2.1.6-3.1 1.5-.6.6-1 1.2-1.2 1.9s-.2 1.3-.1 2 .4 1.3.7 2c.4.6.8 1.2 1.3 1.7l-3.3 3.3c-.9-1-1.7-2.1-2.2-3.3s-.8-2.3-.8-3.5.2-2.4.6-3.5c.5-1.2 1.2-2.2 2.2-3.3.8-.8 1.7-1.5 2.7-2s2-.9 3.1-1c.6-.1 1-.2 1.3-.2m0-3.8c-.6 0-1.1 0-1.7.1-1.5.2-2.9.7-4.3 1.4-1.3.7-2.5 1.6-3.6 2.7-1.4 1.4-2.4 2.9-3.1 4.6-.7 1.7-1 3.4-.9 5.1.1 1.7.5 3.3 1.2 4.9.7 1.5 1.6 3 2.9 4.3l2.7 2.9 2.8-2.8 2.6-2.6 1.7 1.7-3 3-2.7 2.7 2.8 2.7c1.4 1.3 2.9 2.4 4.4 3.1 1.7.8 3.4 1.2 5.1 1.3h.3c1.7 0 3.4-.4 5-1.1 1.6-.7 3.2-1.9 4.7-3.4 1.3-1.3 2.3-2.7 3-4.2.8-1.6 1.3-3.2 1.4-4.8.2-1.7 0-3.4-.5-5.1-.6-1.7-1.6-3.3-2.9-4.7-1.9-1.9-4-3-6.4-3.4-.3-.1-.6-.1-.9-.1-.5-1.9-1.5-3.6-3-5.1-1.3-1.3-2.8-2.3-4.5-2.8-.9-.2-2-.4-3.1-.4zm-1.6 12.7s0-.1.2-.2c.1-.1.4-.3.5-.4 0 0 .1 0 .1.1.1.1.1.2.2.2v.1c-.1.2-.2.5-.4.8-.1.2-.2.3-.3.4-.1-.2-.2-.5-.3-.7v-.3zm7.7 9.3c.5-.5.9-.9 1.4-1.3.3-.3.7-.5 1-.6h.2c.1 0 .2.1.5.4.5.5.5.7.5.8 0 .3-.1.7-.7 1.3-.4.4-.7.6-.9.6h-.1c-.4 0-.9-.2-1.7-1l-.2-.2z"/></g><g><path class="st7" d="M1225.4 739.8c-1.1 0-2.2-.2-3.3-.5-1.4-.5-2.7-1.3-4-2.5l-1.5-1.3 5.9-5.9 1.3 1.1c.8.6 1.5 1 2.2 1h.1c.8 0 1.5-.4 2.2-1.2.5-.5.8-1 1-1.4.1-.4.2-.8.1-1.2s-.2-.9-.5-1.3c-.3-.5-.8-1.1-1.3-1.6-.4-.4-.9-.8-1.4-1s-.9-.4-1.4-.4h-.3c-.3 0-.7.1-1 .2-.5.2-.9.5-1.4.9-.5.5-.9 1.1-1.1 1.7-.1.3-.2.6.1 1.3l.5 1.2-5.9 5.9-11.1-16.5 12.9-12.9 5.7 5.7-8.3 8.3 1 1.5c.5-.8 1-1.5 1.6-2.2 1.2-1.2 2.5-2.1 3.8-2.6 1.2-.5 2.5-.7 3.7-.7h.6c1.4.1 2.8.5 4.1 1.1 1.3.6 2.5 1.5 3.6 2.6.9.9 1.8 2.1 2.4 3.3.7 1.3 1.2 2.8 1.3 4.3.2 1.5 0 3.1-.5 4.7s-1.5 3.2-3 4.6c-1.1 1.1-2.3 2-3.6 2.7-1.3.7-2.7 1.1-4.1 1.3.2-.2-.1-.2-.4-.2z"/><path class="st1" d="M1217.9 707.9l3 3-8 8 4.1 6.2h.1c-.1-.9.1-1.9.6-2.8.4-.9 1-1.8 1.6-2.4 1-1 2.1-1.7 3.2-2.2 1-.4 2-.6 3-.6h.4c1.1.1 2.3.4 3.4.9 1.1.6 2.1 1.3 3.1 2.3.8.8 1.5 1.8 2.1 2.9.6 1.1 1 2.3 1.1 3.6s0 2.6-.4 3.9c-.4 1.3-1.3 2.6-2.5 3.9-1 1-2 1.8-3.1 2.3-1.1.6-2.2.9-3.4 1h-.8c-.9 0-1.8-.1-2.6-.4-1.1-.4-2.2-1.1-3.3-2.1l3.3-3.3c1.1.9 2.3 1.4 3.4 1.4h.2c1.2-.1 2.4-.6 3.5-1.7.7-.7 1.2-1.4 1.4-2.1s.3-1.4.2-2.1c-.1-.7-.4-1.4-.8-2.1-.4-.7-.9-1.3-1.5-1.9-.6-.6-1.2-1-1.8-1.4-.7-.4-1.3-.6-2-.7h-.5c-.5 0-1.1.1-1.7.3-.7.3-1.4.7-2.1 1.4s-1.2 1.5-1.6 2.3c-.3.9-.3 1.8.1 2.8l-3.3 3.3-8.9-13.3 10.5-10.4m0-5.4l-2.7 2.7-10.5 10.5-2.2 2.2 1.8 2.6 8.9 13.3 1 1.5-.3.3 1.3 1.2.6.9.2-.2.8.8c1.5 1.3 3 2.3 4.7 2.9 1.3.4 2.6.6 3.9.6.4 0 .8 0 1.2-.1 1.6-.2 3.3-.7 4.8-1.5 1.4-.8 2.8-1.8 4-3 1.7-1.7 2.8-3.5 3.4-5.4.6-1.8.8-3.7.6-5.5-.2-1.8-.7-3.4-1.5-5-.8-1.4-1.7-2.7-2.8-3.8-1.3-1.3-2.6-2.3-4.1-3-1.6-.8-3.2-1.2-4.9-1.3h-.7c-.5 0-1.1 0-1.6.1l2.5-2.5-2.7-2.7-3-3-2.7-2.6zm5.3 24.3l.6-.9c.3-.3.6-.4.7-.5.1 0 .3-.1.4-.1h.1c.2 0 .4.1.7.2.3.2.6.4.9.7.4.4.7.8 1 1.2.1.2.2.4.2.6v.3s-.1.3-.5.7c-.3.3-.7.6-1 .6s-.6-.2-1-.5l-1.5-1.2-.6-1.1z"/></g><g><path class="st7" d="M739.5 425.1c-2 0-3.8-.4-5.5-1.1-1.6-.8-3-1.8-4.1-3.1-1.1-1.3-2-2.9-2.5-4.6-.6-1.7-.9-3.6-.9-5.6s.3-3.9.9-5.7c.6-1.8 1.4-3.3 2.5-4.7 1.1-1.4 2.5-2.4 4.1-3.2 1.6-.8 3.5-1.2 5.5-1.2s3.9.4 5.5 1.2c1.6.8 3 1.8 4.1 3.2 1.1 1.3 1.9 2.9 2.5 4.7.6 1.7.9 3.6.9 5.7 0 2-.3 3.8-.9 5.6-.6 1.8-1.4 3.3-2.5 4.6-1.1 1.3-2.5 2.4-4.1 3.1-1.6.8-3.5 1.1-5.5 1.1zm0-21.5c-.9 0-1.6.2-2.2.5-.6.4-1.1.8-1.5 1.4-.4.7-.7 1.4-.9 2.3s-.3 1.9-.3 2.9c0 .9.1 1.8.3 2.7.2.8.5 1.6.9 2.2s.9 1.1 1.5 1.4 1.3.5 2.2.5 1.6-.2 2.2-.5c.6-.4 1.1-.8 1.5-1.4s.7-1.4.9-2.2c.2-.9.3-1.8.3-2.7 0-1-.1-1.9-.3-2.9-.2-.9-.5-1.6-.9-2.3-.4-.6-.9-1.1-1.5-1.4s-1.3-.5-2.2-.5z"/><path class="st1" d="M739.5 397.5c1.8 0 3.4.3 4.8 1s2.6 1.6 3.6 2.8 1.7 2.6 2.3 4.2c.5 1.6.8 3.3.8 5.2 0 1.8-.3 3.5-.8 5.1s-1.3 2.9-2.3 4.1-2.2 2.1-3.6 2.7c-1.4.7-3 1-4.8 1s-3.4-.3-4.8-1-2.6-1.6-3.6-2.7c-1-1.2-1.7-2.5-2.3-4.1-.5-1.6-.8-3.3-.8-5.1 0-1.9.3-3.6.8-5.2s1.3-3 2.3-4.2 2.2-2.1 3.6-2.8c1.4-.7 3-1 4.8-1m0 21.6c1.2 0 2.1-.2 2.9-.7.8-.5 1.5-1.1 2-1.9s.9-1.7 1.1-2.7c.2-1 .3-2 .3-3.1s-.1-2.2-.3-3.2-.6-1.9-1.1-2.7c-.5-.8-1.2-1.4-2-1.9s-1.8-.7-2.9-.7c-1.2 0-2.1.2-2.9.7-.8.5-1.5 1.1-2 1.9s-.9 1.7-1.1 2.7c-.2 1-.3 2.1-.3 3.2s.1 2.1.3 3.1.6 1.9 1.1 2.7c.5.8 1.2 1.4 2 1.9.8.4 1.8.7 2.9.7m0-24.6c-2.2 0-4.3.4-6.1 1.3s-3.4 2.1-4.6 3.6c-1.2 1.5-2.2 3.2-2.8 5.2-.6 1.9-.9 4-.9 6.1s.3 4.2.9 6c.6 1.9 1.6 3.6 2.8 5.1 1.3 1.5 2.8 2.7 4.6 3.5s3.9 1.3 6.1 1.3c2.2 0 4.3-.4 6.1-1.3 1.8-.8 3.4-2 4.6-3.5 1.2-1.5 2.2-3.2 2.8-5.1s.9-3.9.9-6c0-2.2-.3-4.2-.9-6.1-.6-1.9-1.6-3.7-2.8-5.2-1.3-1.5-2.8-2.7-4.6-3.6s-3.8-1.3-6.1-1.3zm0 21.6c-.6 0-1.1-.1-1.4-.3-.4-.2-.7-.5-1-.9-.3-.5-.6-1.1-.7-1.8-.2-.8-.3-1.6-.3-2.4 0-.9.1-1.7.3-2.5.2-.7.4-1.3.7-1.8.2-.4.6-.7.9-.9.3-.2.8-.3 1.4-.3.6 0 1.1.1 1.4.3.4.2.7.5.9.9.3.5.6 1.1.7 1.8.2.8.3 1.7.3 2.5s-.1 1.6-.3 2.4c-.2.7-.4 1.2-.7 1.7-.2.4-.6.7-1 .9-.1.2-.6.4-1.2.4z"/><path class="st7" d="M753 424.6v-28h19.4v7.6h-11.3v2.8h9.8v7.2h-9.8v10.4H753z"/><path class="st1" d="M770.9 398.1v4.6h-11.3v5.8h9.8v4.3h-9.8v10.3h-5.1v-25h16.4m3-3h-22.4v31h11.1v-10.3h9.8v-10.1h1.5v-10.6z"/><path class="st7" d="M772.4 424.6v-28h19.4v7.6h-11.2v2.8h9.7v7.2h-9.7v10.4h-8.2z"/><path class="st1" d="M790.3 398.1v4.6H779v5.8h9.8v4.3H779v10.3h-5.1v-25h16.4m3-3h-22.4v31H782v-10.3h9.8v-10.1h1.5v-10.6z"/></g><g><path class="st7" d="M744 677.1l-1.8-5.6h-6.6l-1.8 5.6h-8.4l9.9-28h7.4l9.8 28H744zm-4.1-12.6l-.9-2.9-1 2.9h1.9z"/><path class="st1" d="M741.7 650.6l8.7 25h-5.3l-1.8-5.6h-8.7l-1.8 5.6h-5.2l8.8-25h5.3m-5.8 15.4h6.1l-2.9-9.2h-.1l-3.1 9.2m7.9-18.4h-9.5l-.7 2-8.8 25-1.4 4H735l.7-2.1 1.2-3.5h4.4l1.1 3.5.7 2.1h11.7l-1.4-4-8.7-25-.9-2z"/><path class="st7" d="M750.9 649.1h8.1v28h-8.1v-28z"/><path class="st1" d="M757.6 650.6v25h-5.1v-25h5.1m3-3h-11.1v31h11.1v-31z"/><path class="st7" d="M776 677.1l-.4-1c-.3-.9-.5-2-.6-3.3-.1-1.1-.2-2.1-.3-3-.2-1.2-.5-1.8-.7-2-.3-.3-.9-.4-1.7-.4h-3.6v9.8h-8.1v-28h14.1c1.2 0 2.4.2 3.4.7 1 .4 1.9 1.1 2.7 1.8.7.8 1.3 1.7 1.7 2.7s.6 2.1.6 3.2c0 1.7-.4 3.2-1 4.5-.4.7-.8 1.2-1.4 1.7.5.5.8 1 1.2 1.6.3.6.6 1.4.7 2.1l.3 2.1c0 .4 0 .9.1 1.4 0 .5.1 1 .1 1.6 0 .5.1 1 .2 1.4.1.3.2.6.3.8l1.6 2.3H776zm-3.2-16.7c.5 0 1.2-.1 1.6-.4.3-.3.4-.8.4-1.6s-.1-1.3-.4-1.5c-.4-.3-1.1-.4-1.6-.4h-4.1v4l4.1-.1z"/><path class="st1" d="M774.7 650.6c1 0 2 .2 2.8.5.8.4 1.6.9 2.2 1.5s1.1 1.4 1.4 2.2.5 1.7.5 2.7c0 1.5-.3 2.7-.9 3.8-.6 1.1-1.5 1.9-2.8 2.5v.1c.6.2 1.2.5 1.6.9s.8.8 1 1.4c.3.5.5 1.1.6 1.7.1.6.2 1.3.2 1.9 0 .4 0 .9.1 1.4 0 .5.1 1.1.1 1.6.1.6.1 1.1.3 1.6.1.5.3.9.5 1.3h-5.1c-.3-.8-.5-1.7-.5-2.8s-.2-2.1-.3-3.2c-.2-1.3-.5-2.3-1.1-2.9-.6-.6-1.5-.9-2.8-.9h-5.1v9.8h-5.1v-25l12.4-.1m-7.5 11.3h5.6c1.2 0 2.1-.3 2.7-.8.6-.6.9-1.5.9-2.7s-.3-2.1-.9-2.6c-.6-.5-1.5-.8-2.7-.8h-5.6v6.9m7.5-14.3h-15.6v31h11.1v-9.8h2.1c.3 0 .5 0 .6.1s.2.5.3 1.1c.1.9.2 1.9.3 2.9.1 1.4.3 2.6.7 3.7l.7 2h12.9l-3.2-4.7s0-.1-.1-.3c-.1-.4-.2-.8-.2-1.2 0-.5-.1-1-.1-1.5 0-.6 0-1-.1-1.4-.1-.8-.2-1.5-.3-2.3-.2-.9-.5-1.7-.8-2.5-.2-.3-.3-.6-.5-.9.3-.3.5-.7.7-1.1.8-1.5 1.2-3.3 1.2-5.2 0-1.3-.2-2.6-.7-3.7-.5-1.2-1.1-2.3-2-3.2s-1.9-1.7-3.1-2.2c-1.1-.5-2.5-.8-3.9-.8zm-4.5 10.3h3.1v.9h-3.1v-.9z"/></g><g><path class="st7" d="M1432.4 425.3c-2 0-3.8-.4-5.5-1.1-1.6-.8-3-1.8-4.1-3.1-1.1-1.3-2-2.9-2.5-4.6-.6-1.7-.9-3.6-.9-5.6s.3-3.9.9-5.7c.6-1.8 1.4-3.3 2.5-4.7 1.1-1.4 2.5-2.4 4.1-3.2 1.6-.8 3.5-1.2 5.5-1.2s3.9.4 5.5 1.2c1.6.8 3 1.8 4.1 3.2 1.1 1.3 1.9 2.9 2.5 4.7.6 1.7.9 3.6.9 5.7 0 2-.3 3.8-.9 5.6-.6 1.7-1.4 3.3-2.5 4.6-1.1 1.3-2.5 2.4-4.1 3.1s-3.5 1.1-5.5 1.1zm0-21.5c-.9 0-1.6.2-2.2.5-.6.4-1.1.8-1.5 1.4-.4.7-.7 1.4-.9 2.3-.2.9-.3 1.9-.3 2.9 0 .9.1 1.8.3 2.7.2.8.5 1.6.9 2.2s.9 1.1 1.5 1.4 1.3.5 2.2.5 1.6-.2 2.2-.5c.6-.4 1.1-.8 1.5-1.4s.7-1.4.9-2.2c.2-.9.3-1.8.3-2.7 0-1-.1-1.9-.3-2.9-.2-.9-.5-1.6-.9-2.3-.4-.6-.9-1.1-1.5-1.4s-1.3-.5-2.2-.5z"/><path class="st1" d="M1432.4 397.7c1.8 0 3.4.3 4.8 1s2.6 1.6 3.6 2.8c1 1.2 1.7 2.6 2.3 4.2.5 1.6.8 3.3.8 5.2 0 1.8-.3 3.5-.8 5.1s-1.3 2.9-2.3 4.1-2.2 2.1-3.6 2.7-3 1-4.8 1-3.4-.3-4.8-1-2.6-1.6-3.6-2.7c-1-1.2-1.7-2.5-2.3-4.1-.5-1.6-.8-3.3-.8-5.1 0-1.9.3-3.6.8-5.2s1.3-3 2.3-4.2 2.2-2.1 3.6-2.8c1.4-.7 3-1 4.8-1m0 21.5c1.2 0 2.1-.2 2.9-.7s1.5-1.1 2-1.9.9-1.7 1.1-2.7.3-2 .3-3.1-.1-2.2-.3-3.2c-.2-1-.6-1.9-1.1-2.7-.5-.8-1.2-1.4-2-1.9s-1.8-.7-2.9-.7-2.1.2-2.9.7-1.5 1.1-2 1.9-.9 1.7-1.1 2.7-.3 2.1-.3 3.2.1 2.1.3 3.1c.2 1 .6 1.9 1.1 2.7.5.8 1.2 1.4 2 1.9.7.5 1.7.7 2.9.7m0-24.5c-2.2 0-4.3.4-6.1 1.3-1.8.9-3.4 2.1-4.6 3.6s-2.2 3.2-2.8 5.2c-.6 1.9-.9 4-.9 6.1s.3 4.2.9 6c.6 1.9 1.6 3.6 2.8 5.1 1.3 1.5 2.8 2.7 4.6 3.5 1.8.8 3.9 1.3 6.1 1.3s4.3-.4 6.1-1.3c1.8-.8 3.4-2 4.6-3.5s2.2-3.2 2.8-5.1c.6-1.9.9-3.9.9-6 0-2.2-.3-4.2-.9-6.1s-1.6-3.7-2.8-5.2c-1.3-1.5-2.8-2.7-4.6-3.6-1.8-.9-3.9-1.3-6.1-1.3zm0 21.5c-.6 0-1.1-.1-1.4-.3-.4-.2-.7-.5-1-.9-.3-.5-.6-1.1-.7-1.7-.2-.8-.3-1.6-.3-2.4 0-.9.1-1.7.3-2.5.2-.7.4-1.3.7-1.8.2-.4.6-.7.9-.9.3-.2.8-.3 1.4-.3s1.1.1 1.4.3c.4.2.7.5.9.9.3.5.6 1.1.7 1.8.2.8.3 1.7.3 2.5s-.1 1.6-.3 2.4c-.2.7-.4 1.2-.7 1.7-.2.4-.6.7-1 .9-.1.2-.6.3-1.2.3z"/><path class="st7" d="M1445.9 424.8v-28h19.4v7.6H1454v2.8h9.8v7.2h-9.8v10.4h-8.1z"/><path class="st1" d="M1463.8 398.3v4.6h-11.3v5.8h9.8v4.3h-9.8v10.3h-5.1v-25h16.4m3-3h-22.4v31h11.1V416h9.8v-10.1h1.5v-10.6z"/><path class="st7" d="M1465.3 424.8v-28h19.4v7.6h-11.3v2.8h9.8v7.2h-9.8v10.4h-8.1z"/><path class="st1" d="M1483.2 398.3v4.6h-11.3v5.8h9.8v4.3h-9.8v10.3h-5.1v-25h16.4m3-3h-22.4v31h11.1V416h9.8v-10.1h1.5v-10.6z"/></g><g><path class="st7" d="M1445.4 678.1l-1.8-5.6h-6.6l-1.8 5.6h-8.4l9.9-28h7.4l9.8 28h-8.5zm-4.1-12.6l-.9-2.9-1 2.9h1.9z"/><path class="st1" d="M1443.1 651.6l8.7 25h-5.3l-1.8-5.6h-8.7l-1.8 5.6h-5.2l8.8-25h5.3m-5.8 15.4h6.1l-2.9-9.2h-.1l-3.1 9.2m7.9-18.4h-9.5l-.7 2-8.8 25-1.4 4h11.6l.7-2.1 1.2-3.5h4.4l1.1 3.5.7 2.1h11.7l-1.4-4-8.7-25-.9-2z"/><path class="st7" d="M1452.4 650.1h8.1v28h-8.1v-28z"/><path class="st1" d="M1459 651.6v25h-5.1v-25h5.1m3-3h-11.1v31h11.1v-31z"/><path class="st7" d="M1477.5 678.1l-.4-1c-.3-.9-.5-2-.6-3.3-.1-1.1-.2-2.1-.3-3-.2-1.2-.5-1.8-.7-2-.3-.3-.9-.4-1.7-.4h-3.6v9.8h-8.1v-28h14.1c1.2 0 2.4.2 3.4.7 1 .4 1.9 1.1 2.7 1.8.7.8 1.3 1.7 1.7 2.7.4 1 .6 2.1.6 3.2 0 1.7-.4 3.2-1 4.5-.4.7-.8 1.2-1.4 1.7.5.5.8 1 1.2 1.6.3.6.6 1.4.7 2.1l.3 2.1c0 .4 0 .9.1 1.4 0 .5.1 1 .1 1.6 0 .5.1 1 .2 1.4.1.3.2.6.3.8l1.6 2.3h-9.2zm-3.2-16.7c.5 0 1.2-.1 1.6-.4.3-.3.4-.8.4-1.6s-.1-1.3-.4-1.5c-.4-.3-1.1-.4-1.6-.4h-4.1v4l4.1-.1z"/><path class="st1" d="M1476.1 651.6c1 0 2 .2 2.8.5.8.4 1.6.9 2.2 1.5s1.1 1.4 1.4 2.2.5 1.7.5 2.7c0 1.5-.3 2.7-.9 3.8s-1.5 1.9-2.8 2.5v.1c.6.2 1.2.5 1.6.9s.8.8 1 1.4c.3.5.5 1.1.6 1.7s.2 1.3.2 1.9c0 .4 0 .9.1 1.4 0 .5.1 1.1.1 1.6.1.6.1 1.1.3 1.6s.3.9.5 1.3h-5.1c-.3-.8-.5-1.7-.5-2.8s-.2-2.1-.3-3.2c-.2-1.3-.5-2.3-1.1-2.9-.6-.6-1.5-.9-2.8-.9h-5.1v9.8h-5.1v-25l12.4-.1m-7.4 11.3h5.6c1.2 0 2.1-.3 2.7-.8.6-.6.9-1.5.9-2.7s-.3-2.1-.9-2.6-1.5-.8-2.7-.8h-5.6v6.9m7.4-14.3h-15.6v31h11.1v-9.8h2.1c.3 0 .5 0 .6.1s.2.5.3 1.1c.1.9.2 1.9.3 2.9.1 1.4.3 2.6.7 3.7l.7 2h12.9l-3.2-4.7s0-.1-.1-.3c-.1-.4-.2-.8-.2-1.2 0-.5-.1-1-.1-1.5 0-.6 0-1-.1-1.4-.1-.8-.2-1.5-.3-2.2-.2-.9-.5-1.7-.8-2.5-.2-.3-.3-.6-.5-.9.3-.3.5-.7.7-1.1.8-1.5 1.2-3.3 1.2-5.2 0-1.3-.2-2.6-.7-3.7-.5-1.2-1.1-2.3-2-3.2s-1.9-1.7-3.1-2.2c-1.1-.6-2.4-.9-3.9-.9zm-4.4 10.3h3.1v.9h-3.1v-.9z"/></g></svg>